/* XPM */
static char * heart_full_xpm[] = {
"64 64 171 2",
"  	c #000000",
". 	c #0D0808",
"+ 	c #0E0B0B",
"@ 	c #B51724",
"# 	c #B51623",
"$ 	c #7F1A1D",
"% 	c #291D13",
"& 	c #281D12",
"* 	c #271D14",
"= 	c #302419",
"- 	c #291D12",
"; 	c #541B17",
"> 	c #B41624",
", 	c #B41623",
"' 	c #771A1C",
") 	c #281C11",
"! 	c #350407",
"~ 	c #BF1827",
"{ 	c #BE1826",
"] 	c #830F18",
"^ 	c #19120A",
"/ 	c #4F060B",
"( 	c #BE1726",
"_ 	c #7A0D16",
": 	c #3D2E1E",
"< 	c #4C2319",
"[ 	c #3E0407",
"} 	c #521317",
"| 	c #C75259",
"1 	c #C75358",
"2 	c #C65258",
"3 	c #C6444B",
"4 	c #C41826",
"5 	c #8E111A",
"6 	c #3F0408",
"7 	c #3E0409",
"8 	c #56412D",
"9 	c #411210",
"0 	c #3E0408",
"a 	c #630812",
"b 	c #C31826",
"c 	c #871018",
"d 	c #5F4934",
"e 	c #B31623",
"f 	c #BF1726",
"g 	c #C5444B",
"h 	c #FDFCFC",
"i 	c #FDFEFE",
"j 	c #FDFEFD",
"k 	c #F7D2D0",
"l 	c #ED1B24",
"m 	c #ED1C24",
"n 	c #D51A26",
"o 	c #610811",
"p 	c #B91625",
"q 	c #C71826",
"r 	c #ED1C25",
"s 	c #D21B26",
"t 	c #C01726",
"u 	c #52080F",
"v 	c #1C130D",
"w 	c #604832",
"x 	c #B21624",
"y 	c #C3454A",
"z 	c #FEFDFD",
"A 	c #FFFFFF",
"B 	c #FFFFFE",
"C 	c #F8D3D3",
"D 	c #D41B27",
"E 	c #BE1827",
"F 	c #61080E",
"G 	c #B81625",
"H 	c #C71926",
"I 	c #D11A26",
"J 	c #51060D",
"K 	c #1B130B",
"L 	c #61080F",
"M 	c #B71625",
"N 	c #C61926",
"O 	c #DC1B25",
"P 	c #CE1925",
"Q 	c #8B0E19",
"R 	c #6E0914",
"S 	c #6F0A14",
"T 	c #C91825",
"U 	c #D31925",
"V 	c #CB1826",
"W 	c #EA1B25",
"X 	c #C3333B",
"Y 	c #F4B6B6",
"Z 	c #F6B7B7",
"` 	c #F5B7B7",
" .	c #F19797",
"..	c #D61B26",
"+.	c #EB1C24",
"@.	c #C11926",
"#.	c #EE1B24",
"$.	c #D11B26",
"%.	c #BF1826",
"&.	c #B11624",
"*.	c #BD1826",
"=.	c #EC1C25",
"-.	c #EC1B24",
";.	c #52070E",
">.	c #1C130C",
",.	c #422118",
"'.	c #3A050A",
").	c #3B050A",
"!.	c #4E0A0E",
"~.	c #C21927",
"{.	c #C21926",
"].	c #C21A26",
"^.	c #D01B27",
"/.	c #85101A",
"(.	c #503C2A",
"_.	c #350507",
":.	c #CE1A27",
"<.	c #DB1B25",
"[.	c #BE1727",
"}.	c #7B0D16",
"|.	c #B31624",
"1.	c #B21623",
"2.	c #C51924",
"3.	c #E91B24",
"4.	c #E91B25",
"5.	c #EB1B25",
"6.	c #E81B25",
"7.	c #D51A25",
"8.	c #771B1C",
"9.	c #6F0C15",
"0.	c #BE1825",
"a.	c #BD1825",
"b.	c #D81B25",
"c.	c #E51B24",
"d.	c #96121D",
"e.	c #700B15",
"f.	c #E51C24",
"g.	c #D71B25",
"h.	c #74392A",
"i.	c #A0121F",
"j.	c #C51822",
"k.	c #E01A25",
"l.	c #EA1B24",
"m.	c #D61924",
"n.	c #A01220",
"o.	c #882A25",
"p.	c #8C111B",
"q.	c #E11A24",
"r.	c #C01826",
"s.	c #AB1521",
"t.	c #8D101A",
"u.	c #AC1521",
"v.	c #8D101B",
"w.	c #E21A24",
"x.	c #7F3F2F",
"y.	c #89101A",
"z.	c #88101A",
"A.	c #89101B",
"B.	c #D71C27",
"C.	c #D61B27",
"D.	c #8D111B",
"E.	c #822722",
"F.	c #A3131F",
"G.	c #210305",
"H.	c #210306",
"I.	c #A31320",
"J.	c #BD1726",
"K.	c #220407",
"L.	c #713528",
"M.	c #6B0B12",
"N.	c #6A0B13",
"                        . . . . . . . . . . . .                                   . . . . . . . . . . . .                       ",
"                        + + + + + + + + + + + .                                 . + + + + + + + + + + + .                       ",
"                        + + + + + + + + + + + .                                 . + + + + + + + + + + + .                       ",
"                        + + + + + + + + + + + .                                 . + + + + + + + + + + + .                       ",
"                        + + + + + + + + + + + .                                 . + + + + + + + + + + + .                       ",
"                        + + + + + + + + + + + .                                 . + + + + + + + + + + + .                       ",
"            . . . . . . @ # # # # # # # # # # $ % & & & * .           = & & & - ; > # # # # # # # # # , ' & & & & ) .           ",
"            . + + + + ! ~ { { { { { { { { { { ] + + + + + .           ^ + + + + / { { { { { { { { { { ( _ + + + + + .           ",
"            . + + + + ! ~ { { { { { { { { { { ] + + + + + .           ^ + + + + / { { { { { { { { { { ( _ + + + + + .           ",
"            . + + + + ! ~ { { { { { { { { { { ] + + + + + .           ^ + + + + / { { { { { { { { { { ( _ + + + + + .           ",
"            . + + + + ! ~ { { { { { { { { { { ] + + + + + .           ^ + + + + / { { { { { { { { { { ( _ + + + + + .           ",
"          : < [ [ [ [ } | 1 1 1 2 3 4 4 4 4 4 5 6 [ [ [ 7 .         8 9 [ [ [ 0 a 4 4 4 4 4 4 4 4 4 4 b c [ [ [ [ [ .           ",
"d + + + + + e f f f f g h i i i j k l m m m m n f f f f f o + + + + + p f f f f q m m m m m m m m m m r s f f f f t u + + + + v ",
"w + + + + + x { { { { y z A A A B C l l l l l D { { { { E F + + + + + G { { { { H l l l l l l l l l l l I { { { { { J + + + + K ",
"w + + + + + x { { { { y z A A A B C l l l l l D { { { { E F + + + + + G { { { { H l l l l l l l l l l l I { { { { { J + + + + K ",
"w + + + + + x { { { { y z A A A B C l l l l l D { { { { E F + + + + + G { { { { H l l l l l l l l l l l I { { { { { J + + + + K ",
"w + + + + + x { { { { y z A A A B C l l l l l D { { { { ( L + + + + + M { { { { N l l l l l l l l l l l I { { { { { J + + + + K ",
"w + + + + + x { { { { y z A A A B C l l l l l O P P P P P Q R R R R S T P P P P U l l l l l l l l l l l I { { { { { J + + + + K ",
"w + + + + + x { { { { y z A A A B C l l l l l l l l l l l V { { { { { W l l l l l l l l l l l l l l l l I { { { { { J + + + + K ",
"w + + + + + x { { { { y z A A A B C l l l l l l l l l l l V { { { { { W l l l l l l l l l l l l l l l l I { { { { { J + + + + K ",
"w + + + + + x { { { { y z A A A B C l l l l l l l l l l l V { { { { { W l l l l l l l l l l l l l l l l I { { { { { J + + + + K ",
"w + + + + + x { { { { y z A A A B C l l l l l l l l l l l V { { { { { W l l l l l l l l l l l l l l l l I { { { { { J + + + + K ",
"w + + + + + x { { { { y z A A A B C l l l l l l l l l l l V { { { { { W l l l l l l l l l l l l l l l l I { { { { { J + + + + K ",
"w + + + + + x { { { { X Y Z Z Z `  .l l l l l l l l l l l O ..........+.l l l l l l l l l l l l l l l l I { { { { { J + + + + K ",
"w + + + + + x { { { { @.r l l l l #.l l l l l l l l l l l l l l l l l l l l l l l l l l l l l l l l l l I { { { { { J + + + + K ",
"w + + + + + x { { { { @.l l l l l l l l l l l l l l l l l l l l l l l l l l l l l l l l l l l l l l l l I { { { { { J + + + + K ",
"w + + + + + x { { { { @.l l l l l l l l l l l l l l l l l l l l l l l l l l l l l l l l l l l l l l l l I { { { { { J + + + + K ",
"w + + + + + x { { { { @.l l l l l l l l l l l l l l l l l l l l l l l l l l l l l l l l l l l l l l l l I { { { { { J + + + + K ",
"w + + + + + x { { { { @.l l l l l l l l l l l l l l l l l l l l l l l l l l l l l l l l l l l l l l l l I { { { { { J + + + + K ",
"w + + + + + x { { { { @.l l l l l l l l l l l l l l l l l l l l l l l l l l l l l l l l l l l l l l l l I { { { { { J + + + + K ",
"w + + + + + x { { { { @.l l l l l l l l l l l l l l l l l l l l l l l l l l l l l l l l l l l l l l l l I { { { { { J + + + + K ",
"w + + + + + x { { { { @.l l l l l l l l l l l l l l l l l l l l l l l l l l l l l l l l l l l l l l l l I { { { { { J + + + + K ",
"w + + + + + x { { { { @.l l l l l l l l l l l l l l l l l l l l l l l l l l l l l l l l l l l l l l l l I { { { { { J + + + + K ",
"w + + + + + x { { { { @.l l l l l l l l l l l l l l l l l l l l l l l l l l l l l l l l l l l l l l l l $.{ { { { %.J + + + + K ",
"w + + + + + &.*.*.*.*.@.=.r r r r l l l l l l l l l l l l l l l l l l l l l l l l l l l l l l r r r r -.$.*.*.*.*.{ ;.+ + + + >.",
"            ,.'.).).).!.~.{.{.{.].^.l l l l l l l l l l l l l l l l l l l l l l l l l l l l O {.{.{.{.{./.).).).).).(.          ",
"            . + + + + _.E { { { *.:.l l l l l l l l l l l l l l l l l l l l l l l l l l l l <.( { { { [.}.+ + + + + .           ",
"            . + + + + ! ~ { { { *.:.l l l l l l l l l l l l l l l l l l l l l l l l l l l l <.( { { { ( _ + + + + + .           ",
"            . + + + + ! ~ { { { *.:.l l l l l l l l l l l l l l l l l l l l l l l l l l l l <.( { { { ( _ + + + + + .           ",
"            . + + + + ! ~ { { { *.:.l l l l l l l l l l l l l l l l l l l l l l l l l l l l <.( { { { ( _ + + + + + .           ",
"            . . . . . . |.1.1.1.x 2.3.3.4.4.4.5.l l l l l l l l l l l l l l l l -.6.4.4.4.4.7.1.1.1.1.1.8.. . . . . .           ",
"                        + + + + + 9.{ 0.a.a.0.b.l l l l l l l l l l l l l l l l c.{ a.a.a.a.d.+ + + + + .                       ",
"                        + + + + + e.{ { { { { b.l l l l l l l l l l l l l l l l f.{ { { { { d.+ + + + + .                       ",
"                        + + + + + e.{ { { { { b.l l l l l l l l l l l l l l l l f.{ { { { { d.+ + + + + .                       ",
"                        + + + + + e.{ { { { { b.l l l l l l l l l l l l l l l l f.{ { { { { d.+ + + + + .                       ",
"                        + + + + + 9.{ { { { { g.l l l l l l l l l l l l l l l l c.E { { { { d.+ + + + + .                       ",
"                        . . . . . h.i.i.i.i.i.j.k.k.k.k.k.l.l l l l l k.k.k.k.k.m.n.i.i.i.i.o.. . . . . .                       ",
"                                  . . . . . . p.{ { { { { q.l l l l -.r.{ { { E s.+ + + + + .                                   ",
"                                  . . . . . . t.{ { { { { q.l l l l l r.{ { { { u.+ + + + + .                                   ",
"                                  . . . . . . t.{ { { { { q.l l l l l r.{ { { { u.+ + + + + .                                   ",
"                                  . . . . . . t.{ { { { { q.l l l l l r.{ { { { u.+ + + + + .                                   ",
"                                  . . . . . . v.{ { { { { w.l l l l l r.{ { { { u.+ + + + + .                                   ",
"                                    . . . . . x.y.z.z.z.A.2.B.B.B.B.C.D.z.z.z.z.E.. . . . . .                                   ",
"                                              . + + + + + F.{ { { { *.G.+ + + + .                                               ",
"                                              . + + + + + F.{ { { { a.H.+ + + + .                                               ",
"                                              . + + + + + F.{ { { { a.H.+ + + + .                                               ",
"                                              . + + + + + F.{ { { { a.H.+ + + + .                                               ",
"                                              . + + + + + I.[.[.[.[.J.K.+ + + + .                                               ",
"                                                . . . . . L.M.M.M.M.N.. . . . . .                                               ",
"                                                          . + + + + +                                                           ",
"                                                          . + + + + +                                                           ",
"                                                          . + + + + +                                                           ",
"                                                          . + + + + +                                                           ",
"                                                          . + + + + +                                                           "};
