/* XPM */
static char * heart_empty_xpm[] = {
"64 64 74 1",
" 	c #000000",
".	c #1B1010",
"+	c #221911",
"@	c #1B130C",
"#	c #1B130D",
"$	c #726458",
"%	c #5F5F5F",
"&	c #5F5D5C",
"*	c #746558",
"=	c #5E5C5D",
"-	c #CBCBCB",
";	c #FFFFFF",
">	c #F2F2F2",
",	c #C6C6C6",
"'	c #F4F4F4",
")	c #F3F3F2",
"!	c #88796E",
"~	c #919191",
"{	c #DBDBDB",
"]	c #F6F6F6",
"^	c #909091",
"/	c #88827E",
"(	c #87786C",
"_	c #909090",
":	c #D8D8D8",
"<	c #F7F7F7",
"[	c #898480",
"}	c #ADADAD",
"|	c #FEFEFE",
"1	c #D7D7D7",
"2	c #A7A8A7",
"3	c #DCDCDC",
"4	c #A8A8A8",
"5	c #DDDDDD",
"6	c #A7A7A7",
"7	c #EBEBEB",
"8	c #B5B5B5",
"9	c #D5D5D5",
"0	c #A5A5A4",
"a	c #F1F1F1",
"b	c #FAFAFA",
"c	c #D1D1D1",
"d	c #171109",
"e	c #171009",
"f	c #CACACA",
"g	c #F3F3F3",
"h	c #B3B2AF",
"i	c #DEDDDD",
"j	c #DEDEDE",
"k	c #F9F9F9",
"l	c #DFDFDF",
"m	c #D5D4D3",
"n	c #E7E7E7",
"o	c #555454",
"p	c #555554",
"q	c #545454",
"r	c #B5B4B3",
"s	c #C8C8C8",
"t	c #FCFCFC",
"u	c #DADADA",
"v	c #343433",
"w	c #989898",
"x	c #353433",
"y	c #FBFBFB",
"z	c #FBFBFA",
"A	c #A2A1A0",
"B	c #BCBBBA",
"C	c #D8D8D7",
"D	c #A4A4A3",
"E	c #7D7D7D",
"F	c #BCBCBC",
"G	c #BBBBBB",
"H	c #79797A",
"I	c #797979",
"           ............                 ...........+            ",
"           ............                 ...........@            ",
"           ............                 ...........@            ",
"           ............                 ...........@            ",
"           ............                 ...........#            ",
"      .....$%%%%%%%%%%&.....       .....*%%%%%%%%%%=.....       ",
"     ......-;;;;;;;;;;>......     ......,;;;;;;;;;;'......      ",
"     ......-;;;;;;;;;;)......     ......,;;;;;;;;;;'......      ",
"     ......-;;;;;;;;;;)......     ......,;;;;;;;;;;'......      ",
"     ......-;;;;;;;;;;)......     ......,;;;;;;;;;;'......      ",
"     ......-;;;;;;;;;;)......     ......,;;;;;;;;;;'......      ",
".....!~~~~~{;;;;;;;;;;]~~~~^/.....(_~~~_:;;;;;;;;;;<~~~~_[......",
".....};;;;||;;;;;;;;;;||;;;|1.....2|;;;||;;;;;;;;;;||;;;|3......",
".....};;;;;;;;;;;;;;;;;;;;;;:.....4;;;;;;;;;;;;;;;;;;;;;;5......",
".....};;;;;;;;;;;;;;;;;;;;;;:.....4;;;;;;;;;;;;;;;;;;;;;;5......",
".....};;;;;;;;;;;;;;;;;;;;;;:.....4;;;;;;;;;;;;;;;;;;;;;;5......",
".....};;;;;;;;;;;;;;;;;;;;;;:.....6;;;;;;;;;;;;;;;;;;;;;;5......",
".....};;;;;;;;;;;;;;;;;;;;;;7888889|;;;;;;;;;;;;;;;;;;;;;5......",
".....};;;;;;;;;;;;;;;;;;;;;;;;;;;;;;;;;;;;;;;;;;;;;;;;;;;5......",
".....};;;;;;;;;;;;;;;;;;;;;;;;;;;;;;;;;;;;;;;;;;;;;;;;;;;5......",
".....};;;;;;;;;;;;;;;;;;;;;;;;;;;;;;;;;;;;;;;;;;;;;;;;;;;5......",
".....};;;;;;;;;;;;;;;;;;;;;;;;;;;;;;;;;;;;;;;;;;;;;;;;;;;5......",
".....};;;;;;;;;;;;;;;;;;;;;;;;;;;;;;;;;;;;;;;;;;;;;;;;;;;5......",
".....};;;;;;;;;;;;;;;;;;;;;;;;;;;;;;;;;;;;;;;;;;;;;;;;;;;5......",
".....};;;;;;;;;;;;;;;;;;;;;;;;;;;;;;;;;;;;;;;;;;;;;;;;;;;5......",
".....};;;;;;;;;;;;;;;;;;;;;;;;;;;;;;;;;;;;;;;;;;;;;;;;;;;5......",
".....};;;;;;;;;;;;;;;;;;;;;;;;;;;;;;;;;;;;;;;;;;;;;;;;;;;5......",
".....};;;;;;;;;;;;;;;;;;;;;;;;;;;;;;;;;;;;;;;;;;;;;;;;;;;5......",
".....};;;;;;;;;;;;;;;;;;;;;;;;;;;;;;;;;;;;;;;;;;;;;;;;;;;5......",
".....};;;;;;;;;;;;;;;;;;;;;;;;;;;;;;;;;;;;;;;;;;;;;;;;;;;5......",
".....};;;;;;;;;;;;;;;;;;;;;;;;;;;;;;;;;;;;;;;;;;;;;;;;;;;5......",
".....};;;;;;;;;;;;;;;;;;;;;;;;;;;;;;;;;;;;;;;;;;;;;;;;;;;5......",
".....};;;;;;;;;;;;;;;;;;;;;;;;;;;;;;;;;;;;;;;;;;;;;;;;;;;5......",
".....};;;;;;;;;;;;;;;;;;;;;;;;;;;;;;;;;;;;;;;;;;;;;;;;;;;5......",
".....0aaaaab;;;;;;;;;;;;;;;;;;;;;;;;;;;;;;;;;;;;;;;|aaaaacdeeee.",
"     ......f;;;;;;;;;;;;;;;;;;;;;;;;;;;;;;;;;;;;;;;g......      ",
"     ......-;;;;;;;;;;;;;;;;;;;;;;;;;;;;;;;;;;;;;;;'......      ",
"     ......-;;;;;;;;;;;;;;;;;;;;;;;;;;;;;;;;;;;;;;;'......      ",
"     ......-;;;;;;;;;;;;;;;;;;;;;;;;;;;;;;;;;;;;;;;'......      ",
"     ......-;;;;;;;;;;;;;;;;;;;;;;;;;;;;;;;;;;;;;;;'......      ",
"     ......hijjj3k;;;;;;;;;;;;;;;;;;;;;;;;;;;;l5jjjm......      ",
"           ......n;;;;;;;;;;;;;;;;;;;;;;;;;;;;o....#            ",
"           ......n;;;;;;;;;;;;;;;;;;;;;;;;;;;;p....@            ",
"           ......n;;;;;;;;;;;;;;;;;;;;;;;;;;;;p....@            ",
"           ......n;;;;;;;;;;;;;;;;;;;;;;;;;;;;p....@            ",
"           ......n;;;;;|;;;;;;;;;;;;;;;;|;;;;;q....#            ",
"           ......r,,,,st;;;;;;;;;;;;;;;|u,,,,,......            ",
"                 .....vb;;;;;;;;;;;;;;;;w......                 ",
"                 .....xy;;;;;;;;;;;;;;;;w......                 ",
"                 .....xy;;;;;;;;;;;;;;;;w......                 ",
"                 .....xy;;;;;;;;;;;;;;;;w......                 ",
"                 .....xz;;;;;;;;;;;;;;;;w......                 ",
"                 ......A0000B;;;;;CD000D......                  ",
"                       .....E;;;;;F......                       ",
"                       .....E;;;;;F......                       ",
"                       .....E;;;;;F......                       ",
"                       .....E;;;;;F......                       ",
"                       .....E|||||G......                       ",
"                       ......HIIII......                        ",
"                            .......                             ",
"                            .......                             ",
"                            .......                             ",
"                            .......                             ",
"                            .......                             "};
