/* XPM */
static char * 0_xpm[] = {
"11 17 51 1",
" 	c #FFFFFF",
".	c #FBFBFB",
"+	c #B9B9B9",
"@	c #636363",
"#	c #2A2A2A",
"$	c #656565",
"%	c #BABABA",
"&	c #FCFCFC",
"*	c #949494",
"=	c #000000",
"-	c #989898",
";	c #D9D9D9",
">	c #B3B3B3",
",	c #FAFAFA",
"'	c #B0B0B0",
")	c #DBDBDB",
"!	c #9B9B9B",
"~	c #222222",
"{	c #F8F8F8",
"]	c #F6F6F6",
"^	c #161616",
"/	c #9F9F9F",
"(	c #565656",
"_	c #6A6A6A",
":	c #666666",
"<	c #5F5F5F",
"[	c #F9F9F9",
"}	c #838383",
"|	c #808080",
"1	c #0D0D0D",
"2	c #F2F2F2",
"3	c #8D8D8D",
"4	c #898989",
"5	c #F4F4F4",
"6	c #EEEEEE",
"7	c #909090",
"8	c #8B8B8B",
"9	c #F0F0F0",
"0	c #F1F1F1",
"a	c #888888",
"b	c #848484",
"c	c #7F7F7F",
"d	c #4D4D4D",
"e	c #6D6D6D",
"f	c #606060",
"g	c #F7F7F7",
"h	c #D4D4D4",
"i	c #B1B1B1",
"j	c #DCDCDC",
"k	c #939393",
"l	c #BCBCBC",
"           ",
"  .+@#$%&  ",
"  *=====-  ",
" ;==>,'==) ",
" !=~{ ]^=/ ",
" (=_   :=< ",
"[==}   |=1.",
"2==3   4==5",
"6==7   8==9",
"0==3   a==5",
"[==b   c=1.",
" d=e   @=f ",
" *=~{ g^=/ ",
" h==>,i==j ",
"  k=====-  ",
"  &l$#@+&  ",
"           "};
