/* XPM */
static char * 1_xpm[] = {
"9 17 17 1",
" 	c #FFFFFF",
".	c #A7A7A7",
"+	c #000000",
"@	c #626262",
"#	c #E6E6E6",
"$	c #262626",
"%	c #E8E8E8",
"&	c #515151",
"*	c #FAFAFA",
"=	c #C0C0C0",
"-	c #2E2E2E",
";	c #C8C8C8",
">	c #424242",
",	c #666666",
"'	c #EEEEEE",
")	c #D0D0D0",
"!	c #BBBBBB",
"         ",
"     .+@ ",
"    #$+@ ",
"   %&++@ ",
" *=-+++@ ",
" ;++&>+@ ",
" ;+,'@+@ ",
" )!* @+@ ",
"     @+@ ",
"     @+@ ",
"     @+@ ",
"     @+@ ",
"     @+@ ",
"     @+@ ",
"     @+@ ",
"     @+@ ",
"         "};
