/* XPM */
static char * 2_xpm[] = {
"11 17 47 1",
" 	c #FFFFFF",
".	c #EAEAEA",
"+	c #A3A3A3",
"@	c #666666",
"#	c #2E2E2E",
"$	c #555555",
"%	c #A2A2A2",
"&	c #EFEFEF",
"*	c #DCDCDC",
"=	c #262626",
"-	c #000000",
";	c #4B4B4B",
">	c #EEEEEE",
",	c #6C6C6C",
"'	c #323232",
")	c #FBFBFB",
"!	c #D8D8D8",
"~	c #1C1C1C",
"{	c #909090",
"]	c #F6F6F6",
"^	c #777777",
"/	c #565656",
"(	c #9F9F9F",
"_	c #8E8E8E",
":	c #929292",
"<	c #F4F4F4",
"[	c #353535",
"}	c #2A2A2A",
"|	c #FCFCFC",
"1	c #FEFEFE",
"2	c #939393",
"3	c #A5A5A5",
"4	c #E1E1E1",
"5	c #AAAAAA",
"6	c #ABABAB",
"7	c #B2B2B2",
"8	c #C6C6C6",
"9	c #878787",
"0	c #E6E6E6",
"a	c #222222",
"b	c #7E7E7E",
"c	c #F9F9F9",
"d	c #888888",
"e	c #4F4F4F",
"f	c #ECECEC",
"g	c #F0F0F0",
"h	c #CCCCCC",
"           ",
"  .+@#$%&  ",
" *=-----;> ",
" ,-'*)!~-{ ",
"]^/(   _-~)",
"       :--<",
"      ][-}|",
"     12--{ ",
"     3---4 ",
"    5---6  ",
"   7---_|  ",
"  8---9)   ",
" 0a--bc    ",
" d--e<     ",
"f---------g",
"h---------g",
"           "};
