/* XPM */
static char * 3_xpm[] = {
"11 17 55 1",
" 	c #FFFFFF",
".	c #ECECEC",
"+	c #9F9F9F",
"@	c #535353",
"#	c #2A2A2A",
"$	c #6A6A6A",
"%	c #BDBDBD",
"&	c #FDFDFD",
"*	c #E9E9E9",
"=	c #3D3D3D",
"-	c #000000",
";	c #969696",
">	c #929292",
",	c #353535",
"'	c #DFDFDF",
")	c #F8F8F8",
"!	c #D9D9D9",
"~	c #A5A5A5",
"{	c #737373",
"]	c #ACACAC",
"^	c #E8E8E8",
"/	c #B2B2B2",
"(	c #DEDEDE",
"_	c #B7B7B7",
":	c #FEFEFE",
"<	c #7A7A7A",
"[	c #2E2E2E",
"}	c #4B4B4B",
"|	c #DBDBDB",
"1	c #A4A4A4",
"2	c #FAFAFA",
"3	c #F3F3F3",
"4	c #D0D0D0",
"5	c #0D0D0D",
"6	c #979797",
"7	c #919191",
"8	c #F1F1F1",
"9	c #ADADAD",
"0	c #E3E3E3",
"a	c #F0F0F0",
"b	c #828282",
"c	c #5C5C5C",
"d	c #B6B6B6",
"e	c #8A8A8A",
"f	c #5F5F5F",
"g	c #DDDDDD",
"h	c #CACACA",
"i	c #8C8C8C",
"j	c #606060",
"k	c #EAEAEA",
"l	c #9D9D9D",
"m	c #515151",
"n	c #222222",
"o	c #AFAFAF",
"p	c #F6F6F6",
"           ",
"  .+@#$%&  ",
" *=-----;  ",
" >-,')+--! ",
" ~{]  ^--/ ",
"      (--_ ",
"    :.<-[. ",
"    %--}|  ",
"    1--[~2 ",
"    3245-6 ",
"       7--8",
"       9--0",
"abcd   e--8",
"&f-=g2h--i ",
" ([-----j8 ",
"  klmnfop  ",
"           "};
