/* XPM */
static char * 4_xpm[] = {
"13 17 28 1",
" 	c #FFFFFF",
".	c #8D8D8D",
"+	c #000000",
"@	c #5C5C5C",
"#	c #D2D2D2",
"$	c #F8F8F8",
"%	c #555555",
"&	c #ABABAB",
"*	c #E5E5E5",
"=	c #161616",
"-	c #323232",
";	c #FDFDFD",
">	c #777777",
",	c #909090",
"'	c #848484",
")	c #C4C4C4",
"!	c #EFEFEF",
"~	c #F2F2F2",
"{	c #3D3D3D",
"]	c #BEBEBE",
"^	c #979797",
"/	c #6E6E6E",
"(	c #FCFCFC",
"_	c #D9D9D9",
":	c #E0E0E0",
"<	c #A5A5A5",
"[	c #9B9B9B",
"}	c #A4A4A4",
"             ",
"       .+@   ",
"      #++@   ",
"     $%++@   ",
"     &+++@   ",
"    *=+-+@   ",
"   ;>+,'+@   ",
"   )+-!'+@   ",
"  ~{+] '+@   ",
"  ^+/( '+@   ",
" _++:  '+@   ",
" <+++++++++[ ",
" }+++++++++[ ",
"       '+@   ",
"       '+@   ",
"       '+@   ",
"             "};
