/* XPM */
static char * 6_xpm[] = {
"11 17 64 1",
" 	c #FFFFFF",
".	c #DFDFDF",
"+	c #8E8E8E",
"@	c #454545",
"#	c #848484",
"$	c #D9D9D9",
"%	c #C9C9C9",
"&	c #000000",
"*	c #D0D0D0",
"=	c #ECECEC",
"-	c #262626",
";	c #898989",
">	c #F2F2F2",
",	c #E8E8E8",
"'	c #424242",
")	c #5A5A5A",
"!	c #FEFEFE",
"~	c #ADADAD",
"{	c #EFEFEF",
"]	c #AFAFAF",
"^	c #9B9B9B",
"/	c #D3D3D3",
"(	c #FDFDFD",
"_	c #696969",
":	c #606060",
"<	c #FBFBFB",
"[	c #161616",
"}	c #878787",
"|	c #C0C0C0",
"1	c #5C5C5C",
"2	c #323232",
"3	c #858585",
"4	c #E3E3E3",
"5	c #F3F3F3",
"6	c #222222",
"7	c #2A2A2A",
"8	c #EEEEEE",
"9	c #939393",
"0	c #F5F5F5",
"a	c #E2E2E2",
"b	c #494949",
"c	c #636363",
"d	c #F1F1F1",
"e	c #F0F0F0",
"f	c #B8B8B8",
"g	c #F9F9F9",
"h	c #383838",
"i	c #D4D4D4",
"j	c #1C1C1C",
"k	c #D7D7D7",
"l	c #D1D1D1",
"m	c #A1A1A1",
"n	c #E7E7E7",
"o	c #787878",
"p	c #EAEAEA",
"q	c #717171",
"r	c #B6B6B6",
"s	c #3D3D3D",
"t	c #E6E6E6",
"u	c #D2D2D2",
"v	c #7D7D7D",
"w	c #474747",
"x	c #999999",
"y	c #EBEBEB",
"           ",
"   .+@@#$  ",
"  %&&&&&&* ",
" =-&;>,'&)!",
" ~&&{  ]^/(",
" _&:       ",
"<[&}|1234  ",
"5&&6&&&&7. ",
"8&&&90ab&c(",
"d&&&e  f&&4",
"g&&h   i&&*",
" 1&j!  k&&l",
" m&&4  |&&n",
" 4&&o{p1&q ",
"  r&&&&&st ",
"   uv2wxy  ",
"           "};
