/* XPM */
static char * 7_xpm[] = {
"11 17 38 1",
" 	c #FFFFFF",
".	c #EDEDED",
"+	c #000000",
"@	c #E3E3E3",
"#	c #E6E6E6",
"$	c #0D0D0D",
"%	c #818181",
"&	c #FBFBFB",
"*	c #FEFEFE",
"=	c #7D7D7D",
"-	c #404040",
";	c #F1F1F1",
">	c #CBCBCB",
",	c #C5C5C5",
"'	c #626262",
")	c #636363",
"!	c #FCFCFC",
"~	c #DADADA",
"{	c #C7C7C7",
"]	c #929292",
"^	c #474747",
"/	c #FAFAFA",
"(	c #F4F4F4",
"_	c #161616",
":	c #A6A6A6",
"<	c #CECECE",
"[	c #D9D9D9",
"}	c #A2A2A2",
"|	c #222222",
"1	c #6C6C6C",
"2	c #767676",
"3	c #FDFDFD",
"4	c #1C1C1C",
"5	c #A3A3A3",
"6	c #F0F0F0",
"7	c #B8B8B8",
"8	c #E8E8E8",
"9	c #C3C3C3",
"           ",
".+++++++++@",
".+++++++++@",
"      #$+%&",
"     *=+-; ",
"     >++,  ",
"    *'+)!  ",
"    ~++{   ",
"    ]+^/   ",
"   (_+:    ",
"   <++[    ",
"   }+|&    ",
"   1+2     ",
"  34+5     ",
"  6++7     ",
"  8++9     ",
"           "};
