/* XPM */
static char * 8_xpm[] = {
"11 17 63 1",
" 	c #FFFFFF",
".	c #EFEFEF",
"+	c #A0A0A0",
"@	c #555555",
"#	c #222222",
"$	c #5A5A5A",
"%	c #A7A7A7",
"&	c #F3F3F3",
"*	c #F1F1F1",
"=	c #4F4F4F",
"-	c #000000",
";	c #5F5F5F",
">	c #F6F6F6",
",	c #ACACAC",
"'	c #CDCDCD",
")	c #FAFAFA",
"!	c #C7C7C7",
"~	c #B8B8B8",
"{	c #7D7D7D",
"]	c #6E6E6E",
"^	c #5D5D5D",
"/	c #8D8D8D",
"(	c #8C8C8C",
"_	c #707070",
":	c #5C5C5C",
"<	c #9B9B9B",
"[	c #CECECE",
"}	c #D0D0D0",
"|	c #C8C8C8",
"1	c #D7D7D7",
"2	c #BDBDBD",
"3	c #262626",
"4	c #C2C2C2",
"5	c #FCFCFC",
"6	c #A3A3A3",
"7	c #9F9F9F",
"8	c #FBFBFB",
"9	c #ADADAD",
"0	c #1C1C1C",
"a	c #D3D3D3",
"b	c #F9F9F9",
"c	c #D2D2D2",
"d	c #2E2E2E",
"e	c #989898",
"f	c #9D9D9D",
"g	c #F7F7F7",
"h	c #EDEDED",
"i	c #B3B3B3",
"j	c #B9B9B9",
"k	c #E9E9E9",
"l	c #F5F5F5",
"m	c #929292",
"n	c #9C9C9C",
"o	c #828282",
"p	c #0D0D0D",
"q	c #D6D6D6",
"r	c #7E7E7E",
"s	c #EAEAEA",
"t	c #494949",
"u	c #404040",
"v	c #E8E8E8",
"w	c #535353",
"x	c #EEEEEE",
"           ",
"  .+@#$%&  ",
" *=-----;> ",
" ,--')!--~ ",
" {-]   ^-/ ",
" (-_   :-< ",
" [--})|--1 ",
"  23---34  ",
" 56-----78 ",
" 9-0abc0-6 ",
"8d-e   f-0g",
"h--i   j--k",
"l--m   n--&",
" o-p'bq#-r ",
" st-----uv ",
"  *%:#w7x  ",
"           "};
