/* XPM */
static char * Counter_xpm[] = {
"192 32 160 2",
"  	c #000000",
". 	c #FFFFFF",
"+ 	c #6D6D6D",
"@ 	c #C5C5C5",
"# 	c #FEFEFE",
"$ 	c #5A5A5A",
"% 	c #2E2E2E",
"& 	c #828282",
"* 	c #E2E2E2",
"= 	c #0D0D0D",
"- 	c #F2F2F2",
"; 	c #ADADAD",
"> 	c #626262",
", 	c #1C1C1C",
"' 	c #C6C6C6",
") 	c #555555",
"! 	c #474747",
"~ 	c #7C7C7C",
"{ 	c #8C8C8C",
"] 	c #848484",
"^ 	c #DFDFDF",
"/ 	c #515151",
"( 	c #949494",
"_ 	c #CBCBCB",
": 	c #F3F3F3",
"< 	c #A9A9A9",
"[ 	c #ACACAC",
"} 	c #979797",
"| 	c #E3E3E3",
"1 	c #A5A5A5",
"2 	c #727272",
"3 	c #3D3D3D",
"4 	c #404040",
"5 	c #707070",
"6 	c #EAEAEA",
"7 	c #9E9E9E",
"8 	c #BCBCBC",
"9 	c #BDBDBD",
"0 	c #ABABAB",
"a 	c #EEEEEE",
"b 	c #696969",
"c 	c #323232",
"d 	c #454545",
"e 	c #777777",
"f 	c #B6B6B6",
"g 	c #B2B2B2",
"h 	c #797979",
"i 	c #3B3B3B",
"j 	c #9C9C9C",
"k 	c #D8D8D8",
"l 	c #EDEDED",
"m 	c #F6F6F6",
"n 	c #222222",
"o 	c #C7C7C7",
"p 	c #FDFDFD",
"q 	c #4D4D4D",
"r 	c #E1E1E1",
"s 	c #F8F8F8",
"t 	c #161616",
"u 	c #B0B0B0",
"v 	c #DDDDDD",
"w 	c #E5E5E5",
"x 	c #CACACA",
"y 	c #2A2A2A",
"z 	c #D4D4D4",
"A 	c #D3D3D3",
"B 	c #A3A3A3",
"C 	c #8E8E8E",
"D 	c #878787",
"E 	c #DCDCDC",
"F 	c #FAFAFA",
"G 	c #717171",
"H 	c #5D5D5D",
"I 	c #E8E8E8",
"J 	c #E9E9E9",
"K 	c #6E6E6E",
"L 	c #D0D0D0",
"M 	c #DBDBDB",
"N 	c #EBEBEB",
"O 	c #BABABA",
"P 	c #CCCCCC",
"Q 	c #F4F4F4",
"R 	c #B1B1B1",
"S 	c #A8A8A8",
"T 	c #4F4F4F",
"U 	c #D2D2D2",
"V 	c #B8B8B8",
"W 	c #B5B5B5",
"X 	c #B4B4B4",
"Y 	c #C0C0C0",
"Z 	c #585858",
"` 	c #FCFCFC",
" .	c #F9F9F9",
"..	c #C9C9C9",
"+.	c #F1F1F1",
"@.	c #262626",
"#.	c #E7E7E7",
"$.	c #4B4B4B",
"%.	c #606060",
"&.	c #BEBEBE",
"*.	c #C2C2C2",
"=.	c #8F8F8F",
"-.	c #898989",
";.	c #DADADA",
">.	c #636363",
",.	c #A1A1A1",
"'.	c #D6D6D6",
").	c #858585",
"!.	c #E4E4E4",
"~.	c #838383",
"{.	c #9B9B9B",
"].	c #CDCDCD",
"^.	c #F5F5F5",
"/.	c #A2A2A2",
"(.	c #CECECE",
"_.	c #AEAEAE",
":.	c #353535",
"<.	c #787878",
"[.	c #D1D1D1",
"}.	c #808080",
"|.	c #B9B9B9",
"1.	c #F7F7F7",
"2.	c #FBFBFB",
"3.	c #A0A0A0",
"4.	c #565656",
"5.	c #8D8D8D",
"6.	c #909090",
"7.	c #D7D7D7",
"8.	c #6C6C6C",
"9.	c #A4A4A4",
"0.	c #E0E0E0",
"a.	c #AAAAAA",
"b.	c #757575",
"c.	c #535353",
"d.	c #9F9F9F",
"e.	c #BBBBBB",
"f.	c #9A9A9A",
"g.	c #B3B3B3",
"h.	c #ECECEC",
"i.	c #C4C4C4",
"j.	c #939393",
"k.	c #D9D9D9",
"l.	c #686868",
"m.	c #666666",
"n.	c #5C5C5C",
"o.	c #767676",
"p.	c #929292",
"q.	c #BFBFBF",
"r.	c #919191",
"s.	c #C3C3C3",
"t.	c #989898",
"u.	c #EFEFEF",
"v.	c #999999",
"w.	c #AFAFAF",
"x.	c #C1C1C1",
"y.	c #7D7D7D",
"z.	c #424242",
"A.	c #7F7F7F",
"B.	c #5F5F5F",
"C.	c #959595",
"                                                                                                                                                                                                                                                                                                                                                                                                ",
"                                                                                                                                                                                                                                                                                                                                                                                                ",
"                                                                                                                                                                                                                                                                                                                                                                                                ",
"      . . . . . . . . . . . . . . . . . . . . . . . . . . . . . . . . . . . . . . . . . . . . . . . . . . . . . . . . . . . . . . . . . . . . . . . . . . . . . . . . . . . . . . . . . . . . . . . . . . . . . . . . . . . . . . . . . . . . . . . . . . . . . . . . . . . . . . . . . . . . . . . . . . . . . . . . . . . . . . . . . . . . . . . . . . . . . . . . . . . . . . . . . .       ",
"      . . . . . . . . . . . . . . . . . . . . . . . . . . . . . . . . . . . . . . . . . . . . . . . . . . . . . . . . . . . . . . . . . . . . . . . . . . . . . . . . . . . . . . . . . . . . . . . . . . . . . . . . . . . . . . . . . . . . . . . . . . . . . . . . . . . . . . . . . . . . . . . . . . . . . . . . . . . . . . . . . . . . . . . . . . . . . . . . . . . . . . . . . .       ",
"      . . . . . . . . . . . . . . . . . . . . . . . . . . . . . . . . . . . . . . . . . . . . . . . . . . . . . . . . . . . . . . . . . . . . . . . . . . . . . . . . . . . . . . . . . . . . . . . . . . . . . . . . . . . . . . . . . . . . . . . . . . . . . . . . . . . . . . . . . . . . . . . . . . . . . . . . . . . . . . . . . . . . . . . . . . . . . . . . . . . . . . . . . .       ",
"      . . +       @ . . . . . . . . . . # $     % . . . . . . . . . . . . . . . . . . . . . . . . . . . . . . . . . . . . . . . . . . . . . . . . . . . . . . . . . . . . . . . . . . . . . . . . . . . . . . . . . . . . . . . . . . . . . . . . . . . . . . . . . . . . . . . . . . . . . . . . . . . . . . . . . . . . . . . . . . . . . . . . . . . . . . . . . . . . . . . . . . . .       ",
"      . . +       & . . . . . . . . . . *       % . . . . . . . . . . . . . . . . . . . . . . . . . . . . . . . . . . . . . . . . . . . . . . . . . . . . . . . . . . . . . . . . . . . . . . . . . . . . . . . . . . . . . . . . . . . . . . . . . . . . . . . . . . . . . . . . . . . . . . . . . . . . . . . . . . . . . . . . . . . . . . . . . . . . . . . . . . . . . . . . . . . .       ",
"      . . +       = - . . . . . . . . . ;       % . . . . . . . . . . . . . . . . . . . . . . . . . . . . . . . . . . . . . . . . . . . . . . . . . . . . . . . . . . . . . . . . . . . . . . . . . . . . . . . . . . . . . . . . . . . . . . . . . . . . . . . . . . . . . . . . . . . . . . . . . . . . . . . . . . . . . . . . . . . . . . . . . . . . . . . . . . . . . . . . . . . .       ",
"      . . +   > ,   ' . . . . . . . . # )   !   % . . . . . . . . . . . . . . . . . . . . . . . . . . . . . . . . . . . . . . . . . . . . . . . . . . . . . . . . . . . . . . . . . . . . . . . . . . . . . . . . . . . . . . . . . . . . . . . . . . . . . . . . . . . . . . . . . . . . . . . . . . . . . . . . . . . . . . . . . . . . . . . . . . . . . . . . . . . . . . . . . . . .       ",
"      . . +   ~ {   ] . . . . . . . . ^   / (   % . . . . . . . . . . . . . . . . . . . . . . . . . . . . . . . . . . . . . . . . . . . . . . . . . . . . . . . . . . . . . . . . . . . . . . . . . . . . . . . . . . . . . . . . . . . . . . . . . . . . . . . . . . . . . . . . . . . . . . . . . . . . . . . . . . . . . . . . . . . . . . . . . . . . . . . . . . . . . . . . . . . .       ",
"      . . +   ~ _   = : . . . . . . . <   [ }   % . . . . . . . | 1 2 3 4 5 ; 6 . . . . . 7       8 . . . . . . 9       0 . . . . a [ b c d e f : . . . . . . . a g h d , i b j k . . . . . . . . . . . . . . l       2 . . . . . . . . . . . . . . . . . . . . . . . . . . . . . . . . . . . . . . . . . . . . . . . . . . . . . . . . . . . . . . . . . . . . . . . . . . . . . . . . .       ",
"      . . +   ~ m n   o . . . . . . p q   r }   % . . . . . s }               t u # . . . v       + . . . . . . 5       w . . . x y             i z . . . . . A c                 B # . . . . . . . . . . . . l       2 . . . . . . . . . . . . . . . . . . . . . . . . . . . . . . . . . . . . . . . . . . . . . . . . . . . . . . . . . . . . . . . . . . . . . . . . . . . . . . . . .       ",
"      . . +   ~ . C   D . . . . . . E   $ # }   % . . . . F G                     j . . . # H       I . . . . J       K . . . L                   t M . . . N n                     O . . . . . . . . . . . . l       2 . . . . . . . . . . . . . . . . . . . . . . . . . . . . . . . . . . . . . . . . . . . . . . . . . . . . . . . . . . . . . . . . . . . . . . . . . . . . . . . . .       ",
"      . . +   ~ . P   t Q . . . . . 1   R . }   % . . . . S       T U F m @ %       @ . . . V       W . . . . X       Y . . m 3     c @ Q m _ 3     Z ` . . ;       @ : ` - g       !  .. . . . . . . . . . . l       2 . . . . . . . . . . . . . . . . . . . . . . . . . . . . . . . . . . . . . . . . . . . . . . . . . . . . . . . . . . . . . . . . . . . . . . . . . . . . . . . . .       ",
"      . . +   ~ . m n   ... . . . ` !   w . }   % . . . +.=     @.#.. . . . U       $.F . . a       %.. . . . %.    t : . . &.      *.. . . . _       z . . {     y s . . . . ( C *.I . . . . . . . . . . . . . . . . . . . . . . . . . . . . . . . . . . . . . . . . . . . . . . . . . . . . . . . . . . . . . . . . . . . . . . . . . . . . . . . . . . . . . . . . . . . . . . . . . .       ",
"      . . +   ~ . . =.  -.. . . . ;.  >.. . }   % . . . &.      ,.. . . . . . e       '.. . . ).      !.. . *       =.. . . ~.      a . . . . m       B . . {.      $ g v F . . . . . . . . . . . . . . . . . . . . . . . . . . . . . . . . . . . . . . . . . . . . . . . . . . . . . . . . . . . . . . . . . . . . . . . . . . . . . . . . . . . . . . . . . . . . . . . . . . . . . . .       ",
"      . . +   ~ . . ].  , ^.. . . /.  f . . }   % . . . }       L . . . . . . X       g . . . (.      _.. . 0       A . . . :.                        <.. . [.            n }.|.6 . . . . . . . . . . . . . . . . . . . . . . . . . . . . . . . . . . . . . . . . . . . . . . . . . . . . . . . . . . . . . . . . . . . . . . . . . . . . . . . . . . . . . . . . . . . . . . . . . . . .       ",
"      . . +   ~ . . 1.n   x . . 2.4   I . . }   % . . . h       ^ . . . . . . '       3.. . . F i     ) # p T     d 2.. . 2.                          4.. . . {.                  5.a . . . . . . . . . . . . . . . . . . . . . . . . . . . . . . . . . . . . . . . . . . . . . . . . . . . . . . . . . . . . . . . . . . . . . . . . . . . . . . . . . . . . . . . . . . . . . . . . . .       ",
"      . . +   ~ . . . 6.  { . . 7.  8.. . . }   % . . . &       ^ . . . . . . @       /.. . . . 9.      0.v       a.. . .  .                          4 . . . # P b.                c.Q . . . . . . . . . . . . . . . . . . . . . . . . . . . . . . . . . . . . . . . . . . . . . . . . . . . . . . . . . . . . . . . . . . . . . . . . . . . . . . . . . . . . . . . . . . . . . . . . .       ",
"      . . +   ~ . . . (.  , m . d.  e.. . . }   % . . . f.      L . . . . . . g.      X . . . . r       R a.      !.. . . . n       m . . . . . . . . . . . . . . . h.i.j.d           |.. . . . . . . . . . . . . . . . . . . . . . . . . . . . . . . . . . . . . . . . . . . . . . . . . . . . . . . . . . . . . . . . . . . . . . . . . . . . . . . . . . . . . . . . . . . . . . . . .       ",
"      . . +   ~ . . . 1.@.  ].2.i   h.. . . }   % . . . 8       /.. . . . . . e       k.. . . . . l.    m.n.    8.. . . . . o.      0.. . . . . . . . . . . . . . . . . . # #.C       ( . . . . . . . . . . . . . . . . . . . . . . . . . . . . . . . . . . . . . . . . . . . . . . . . . . . . . . . . . . . . . . . . . . . . . . . . . . . . . . . . . . . . . . . . . . . . . . . . .       ",
"      . . +   ~ . . . . p.  p.7.  b.. . . . }   % . . . a       @.J . . . . z       c.2.. . . . . 9             q.. . . . . f       r.. . . . . . . . . . # #.s.( o.p . . . . 7.      j . . . . . . . . . . . . . . . . . . . . . . . . . . . . . . . . . . . . . . . . . . . . . . . . . . . . . . . . . . . . . . . . . . . . . . . . . . . . . . . . . . . . . . . . . . . . . . . . .       ",
"      . . +   ~ . . . . (.  y (   q.. . . . }   % . . . . t.      c.A F 1.o c       x . . . . . . +.t         t - . . . . . u.y       a.- p l v.b.w.k 1.. +.t       ( #.2.s ^ b.      x . . . . . . . . . . . l       2 . . . . . . . . . . . . . . . . . . . . . . . . . . . . . . . . . . . . . . . . . . . . . . . . . . . . . . . . . . . . . . . . . . . . . . . . . . . . . . . . .       ",
"      . . +   ~ . . . . s @.      u.. . . . }   % . . . . 1.>.                    ,.. . . . . . . . 5.        5.. . . . . . . x.                      L . . f                       K 2.. . . . . . . . . . . l       2 . . . . . . . . . . . . . . . . . . . . . . . . . . . . . . . . . . . . . . . . . . . . . . . . . . . . . . . . . . . . . . . . . . . . . . . . . . . . . . . . .       ",
"      . . +   ~ . . . . . j.    y.. . . . . }   % . . . . . ^.(               , X # . . . . . . . . U         U . . . . . . . . 8 n               c i.. . . . W t                 o.+.. . . . . . . . . . . . l       2 . . . . . . . . . . . . . . . . . . . . . . . . . . . . . . . . . . . . . . . . . . . . . . . . . . . . . . . . . . . . . . . . . . . . . . . . . . . . . . . . .       ",
"      . . +   ~ . . . . . L     i.. . . . . }   % . . . . . . . * S G 4 i K _.N . . . . . . . . . . 2.!     z.2.. . . . . . . . . N w.G d y $ & 9 u.. . . . . . l X A.$.n c B.C.L ` . . . . . . . . . . . . . l       2 . . . . . . . . . . . . . . . . . . . . . . . . . . . . . . . . . . . . . . . . . . . . . . . . . . . . . . . . . . . . . . . . . . . . . . . . . . . . . . . . .       ",
"      . . . . . . . . . . . . . . . . . . . . . . . . . . . . . . . . . . . . . . . . . . . . . . . . . . . . . . . . . . . . . . . . . . . . . . . . . . . . . . . . . . . . . . . . . . . . . . . . . . . . . . . . . . . . . . . . . . . . . . . . . . . . . . . . . . . . . . . . . . . . . . . . . . . . . . . . . . . . . . . . . . . . . . . . . . . . . . . . . . . . . . . . . .       ",
"      . . . . . . . . . . . . . . . . . . . . . . . . . . . . . . . . . . . . . . . . . . . . . . . . . . . . . . . . . . . . . . . . . . . . . . . . . . . . . . . . . . . . . . . . . . . . . . . . . . . . . . . . . . . . . . . . . . . . . . . . . . . . . . . . . . . . . . . . . . . . . . . . . . . . . . . . . . . . . . . . . . . . . . . . . . . . . . . . . . . . . . . . . .       ",
"                                                                                                                                                                                                                                                                                                                                                                                                ",
"                                                                                                                                                                                                                                                                                                                                                                                                ",
"                                                                                                                                                                                                                                                                                                                                                                                                "};
