/* XPM */
static char * Garage_close_xpm[] = {
"64 64 307 2",
"  	c #767676",
". 	c #7C8587",
"+ 	c #7C8486",
"@ 	c #A0B9BC",
"# 	c #CCD7D9",
"$ 	c #E3E6E7",
"% 	c #E2E6E6",
"& 	c #CCD7D8",
"* 	c #A4B7BD",
"= 	c #767D7E",
"- 	c #A7C0C4",
"; 	c #CCD6D8",
"> 	c #E3E7E6",
", 	c #F4F6F5",
"' 	c #F7F9F7",
") 	c #F6F8F7",
"! 	c #F3F6F5",
"~ 	c #E3E7E7",
"{ 	c #AAC1C5",
"] 	c #758081",
"^ 	c #777D7F",
"/ 	c #ADC1C5",
"( 	c #CFD4D6",
"_ 	c #E7EAEB",
": 	c #F2F4F2",
"< 	c #ECEDEB",
"[ 	c #E8EAE8",
"} 	c #E7E9E8",
"| 	c #EAECEC",
"1 	c #F1F5F3",
"2 	c #F5F8F7",
"3 	c #E8EAEB",
"4 	c #CFD5D7",
"5 	c #ACC2C6",
"6 	c #788082",
"7 	c #788283",
"8 	c #ACBEC2",
"9 	c #D2D4D7",
"0 	c #EDEFEE",
"a 	c #F7F9F8",
"b 	c #F2F4F3",
"c 	c #EEEFEE",
"d 	c #E8E9E9",
"e 	c #E5E7E6",
"f 	c #E6E8E7",
"g 	c #E4E6E5",
"h 	c #ECEEED",
"i 	c #F8F8F7",
"j 	c #EDEFF0",
"k 	c #D1D5D7",
"l 	c #AFBFC3",
"m 	c #787F80",
"n 	c #798384",
"o 	c #AFBEC0",
"p 	c #D6DBDC",
"q 	c #F0F3F3",
"r 	c #F4F6F4",
"s 	c #F0F2F1",
"t 	c #E8EAE9",
"u 	c #E9EBEA",
"v 	c #F3F5F4",
"w 	c #F3F6F4",
"x 	c #F3F4F4",
"y 	c #D8DDDC",
"z 	c #B1BEC1",
"A 	c #798182",
"B 	c #B8C2C5",
"C 	c #E3E5E5",
"D 	c #F5F7F6",
"E 	c #EBEDEC",
"F 	c #E3E5E4",
"G 	c #F1F3F2",
"H 	c #E1E3E2",
"I 	c #E2E4E3",
"J 	c #F5F6F6",
"K 	c #E0E4E5",
"L 	c #B9C1C4",
"M 	c #787E7F",
"N 	c #7B8587",
"O 	c #C2CACD",
"P 	c #E8ECEC",
"Q 	c #F3F6F3",
"R 	c #F3F8F5",
"S 	c #F2F5F4",
"T 	c #EEF0EF",
"U 	c #EAECEB",
"V 	c #F4F4F3",
"W 	c #F3F5F3",
"X 	c #E7ECED",
"Y 	c #C3CACE",
"Z 	c #797D7E",
"` 	c #7B7F80",
" .	c #CBD5D7",
"..	c #EAEDEE",
"+.	c #F2F3F2",
"@.	c #EFF2F0",
"#.	c #E6E9E7",
"$.	c #EFF1F0",
"%.	c #E0E2E1",
"&.	c #EFF1F1",
"*.	c #F1F4F3",
"=.	c #EAEFF0",
"-.	c #CDD5D8",
";.	c #7C8283",
">.	c #7E8182",
",.	c #D6DDDE",
"'.	c #E9EDEC",
").	c #F6F6F6",
"!.	c #F0F1F0",
"~.	c #F3F3F4",
"{.	c #E9ECEB",
"].	c #D4DEDE",
"^.	c #7E8282",
"/.	c #B3C2C7",
"(.	c #D6DFE0",
"_.	c #EAEDEC",
":.	c #EBECEB",
"<.	c #E6E7E6",
"[.	c #E3E4E3",
"}.	c #EAEBEA",
"|.	c #F4F5F4",
"1.	c #E9ECEC",
"2.	c #DAE0E1",
"3.	c #BAC9CD",
"4.	c #D7DCDE",
"5.	c #E9EBED",
"6.	c #F6F8F8",
"7.	c #EAEBEB",
"8.	c #D7DCDF",
"9.	c #808384",
"0.	c #7A7F80",
"a.	c #BACACB",
"b.	c #D8DCDD",
"c.	c #EFF2F1",
"d.	c #EFF1EF",
"e.	c #EEF1F1",
"f.	c #D8DDDE",
"g.	c #848888",
"h.	c #7D888A",
"i.	c #BCC7C9",
"j.	c #DBDFDF",
"k.	c #F3F5F5",
"l.	c #F1F3F1",
"m.	c #F4F5F3",
"n.	c #DDE0E0",
"o.	c #BBC6C8",
"p.	c #788284",
"q.	c #BFC6CA",
"r.	c #F6F7F6",
"s.	c #F1F3F3",
"t.	c #EEF1F0",
"u.	c #F0F2F0",
"v.	c #F5F7F8",
"w.	c #E5E6E8",
"x.	c #BCC8CA",
"y.	c #848C8D",
"z.	c #ECF4F6",
"A.	c #E8F0EF",
"B.	c #E1E6E6",
"C.	c #DFE5E9",
"D.	c #E7F0F1",
"E.	c #EBF4F4",
"F.	c #879191",
"G.	c #798081",
"H.	c #E5E9E9",
"I.	c #E2E6E5",
"J.	c #787D7E",
"K.	c #EBF0EF",
"L.	c #EBEFEE",
"M.	c #E9EFEE",
"N.	c #EAEEED",
"O.	c #EAF0EF",
"P.	c #EEF2F2",
"Q.	c #C9CCCD",
"R.	c #C3C6C8",
"S.	c #C2C6C7",
"T.	c #C3C6C7",
"U.	c #CACBCD",
"V.	c #EEF0F1",
"W.	c #ECEFEF",
"X.	c #E9EEED",
"Y.	c #B1B7BB",
"Z.	c #D4D6D8",
"`.	c #D7DADB",
" +	c #D8DADB",
".+	c #D7DBDB",
"++	c #D8DBDC",
"@+	c #D3D7D8",
"#+	c #B0B5BA",
"$+	c #E9EBEB",
"%+	c #EAF0EE",
"&+	c #EBEDED",
"*+	c #B2B9BE",
"=+	c #F0F3F2",
"-+	c #F0F2F2",
";+	c #F2F4F4",
">+	c #EDF0F0",
",+	c #B3B9BC",
"'+	c #F4F7F6",
")+	c #ECEFEE",
"!+	c #EAEFED",
"~+	c #B5BCC2",
"{+	c #F8F9F9",
"]+	c #F8FAF9",
"^+	c #B7BCC0",
"/+	c #EAEBED",
"(+	c #F4F6F6",
"_+	c #EBEEEE",
":+	c #E9EEEC",
"<+	c #B5BBC1",
"[+	c #F9FBFA",
"}+	c #FAFBFB",
"|+	c #F9FAFA",
"1+	c #FAFCFB",
"2+	c #B7BCBF",
"3+	c #E9EAEC",
"4+	c #EBF0EE",
"5+	c #EBEDEE",
"6+	c #F1F2F2",
"7+	c #F6F7F7",
"8+	c #F4F5F5",
"9+	c #EBECEE",
"0+	c #E8EDEC",
"a+	c #E8EBEB",
"b+	c #B5BAC1",
"c+	c #B5BBBE",
"d+	c #ECEEEE",
"e+	c #B5BBC2",
"f+	c #EDEEED",
"g+	c #ECEDEE",
"h+	c #E9EFED",
"i+	c #B6BCBF",
"j+	c #E9E9EB",
"k+	c #EBEEED",
"l+	c #B5BCC1",
"m+	c #F0F1F1",
"n+	c #F5F7F7",
"o+	c #B6BBBE",
"p+	c #EAEBEC",
"q+	c #EAEDED",
"r+	c #EEF0EE",
"s+	c #EBF1EF",
"t+	c #B4BBC0",
"u+	c #F7F8F8",
"v+	c #ECF0EF",
"w+	c #B5BBC0",
"x+	c #E9EAEB",
"y+	c #EBF1F0",
"z+	c #ECECEE",
"A+	c #EDF0EF",
"B+	c #B6BCC2",
"C+	c #E8EEEC",
"D+	c #B6BCC1",
"E+	c #EBECED",
"F+	c #EBEFEF",
"G+	c #B4BBC2",
"H+	c #ECEFED",
"I+	c #F6F9F7",
"J+	c #F4F7F5",
"K+	c #F8FAFA",
"L+	c #EFF0F0",
"M+	c #F9FAF9",
"N+	c #F6F9F8",
"O+	c #F7FAFA",
"P+	c #F4F7F7",
"Q+	c #F7FAF9",
"R+	c #F7FAF8",
"S+	c #F8FBFA",
"T+	c #F8FBFB",
"U+	c #F7F9F9",
"V+	c #B7BCC1",
"W+	c #EAECED",
"X+	c #F5F5F6",
"Y+	c #EDEEF0",
"Z+	c #D2E4E4",
"`+	c #DCEBEA",
" @	c #DCEAEA",
".@	c #D1E1E3",
"+@	c #A0B4BA",
"@@	c #D2DFDF",
"#@	c #DAE5E6",
"$@	c #D8E5E7",
"%@	c #D7E6E7",
"&@	c #D7E5E6",
"*@	c #D7E4E6",
"=@	c #D7E3E6",
"-@	c #D6E2E4",
";@	c #D8E4E6",
">@	c #D9E4E6",
",@	c #D7E4E5",
"'@	c #D7E3E5",
")@	c #D7E4E4",
"!@	c #D6E3E4",
"~@	c #D6E2E3",
"{@	c #D6E4E3",
"]@	c #D7E3E3",
"^@	c #D6E1E3",
"/@	c #D7E3E4",
"(@	c #D6E3E5",
"_@	c #D8E5E6",
":@	c #D5E1E2",
"<@	c #A1B4B9",
"[@	c #D0E1E2",
"}@	c #DBEAEA",
"|@	c #DDEBEA",
"1@	c #DBEAEB",
"2@	c #D3E4E6",
"                                                                                                                                ",
"                                                                                                                                ",
"                                                                                                                                ",
"                                                                                                                                ",
"                                                                                                                                ",
"                                                                                                                                ",
"                                                                                                                                ",
"                                                                                                                                ",
"                                                                                                                                ",
"                                                                                                                                ",
"                                                              . +                                                               ",
"                                                          @ # $ % & *                                                           ",
"                                                    = - ; > , ' ) ! ~ # { ]                                                     ",
"                                                ^ / ( _ ) : < [ } | 1 2 3 4 5 6                                                 ",
"                                            7 8 9 0 a b c d e f e g d h b i j k l m                                             ",
"                                        n o p q r s 0 t f u s v , s t g } h s w x y z m                                         ",
"                                    A B C , D v E g F E b , , , , v v G u H I E b J , K L M                                     ",
"                                N O P Q R S h f } T b , D ) ) ) ) D , D , b h e F U b V W X Y Z                                 ",
"                            `  ...+., @.#.I t $.b v , , , , , , , , , , , , v G T } %.e &., *.=.-.;.                            ",
"                        >.,.'.+.).!.t f 0 s v , D D ) ) ) ) ) ) ) ) ) ) ) ) ) D , b $.U C e T J ~.{.].^.                        ",
"                    /.(._., , :.<.t h $.b v , , , D D D D D D D D D D D D D D , , , , b T U e [.}.|., 1.2.>.                    ",
"              m 3.4.5.6., 0 7.U h s v , , D D D D D D D D D D D D D D D D D D D D D D D , b T U } } E v ) | 8.9.                ",
"          0.a.b.&.2 c.E E U 0 G , D D , , D D D D D D D D D D D D D D D D D D D D D D , , D , , s E u t u d.) e.f.g.            ",
"      h.i.j.k.) b 0 U u 0 b D D , , , , , , , , , , , , , , , , , , , , , , , , , , , , , , , , D D b E f } h l.) m.n.o.        ",
"  p.q.$ r.v s.t.E U $., D ) D D D D D D D D D D D D D D D D D D D D D D D D D D D D D D D D D D D D D ) v 0 } t h u.w v.w.x.    ",
"  y.z.A.B.U } U s , D D D D D D D D D D D D D D D D D D D D D D D D D D D D D D D D D D D D D D D D D D D , v T f F t C.D.E.F.  ",
"        G.H.S , , , , , , , , , , , , , , , , , , , , , , , , , , , , , , , , , , , , , , , , , , , , , , , , D v s I.J.        ",
"          K.) ) ) ) ) ) ) ) ) ) ) ) ) ) ) ) ) ) ) ) ) ) ) ) ) ) ) ) ) ) ) ) ) ) ) ) ) ) ) ) ) ) ) ) ) ) ) ) ) ) ) D L.          ",
"          M., , , v +.: : : : : : : : : : : : : : : : : : : : : : : : : : : : : : : : : : : : : : : : : : : W , , , N.          ",
"          O.D D D P.Q.R.S.S.S.S.S.S.S.S.S.S.S.S.S.S.S.S.S.S.S.S.S.S.S.S.S.S.S.S.S.S.S.S.S.S.S.S.S.S.S.S.T.U.V.D D D W.          ",
"          X.v v v 1.Y.Z.`.`.`.`.`.`.`. +`.`.`.`.`.`..+++.+`.`.`.`.`.`. +`. +`.`.`.`.`.`. +.+`.`.`.`.`.`.@+#+$+v v v N.          ",
"          %+D D D &+*+| =+-+-+-+-+-+s.-+s -+-+-+-+-+=+S &.=+-+-+-+-+=+;+-+G -+-+-+-+-+=+;+c.c.-+-+-+-+=+>+,+| '+D D )+          ",
"          !+D D , &+~+h r.D D D D ) a , , r.D D D ) ) {+b r.D D D D ) ]+v ) D D D D D ) a v D D D D D ) ! ^+/+(+D , _+          ",
"          :+v v v 1.<+c ]+]+]+]+[+[+}+D a ]+]+]+[+[+[+|+, ]+]+]+]+]+[+1+D ]+]+]+]+]+[+[+]+D [+[+]+]+]+[+(+2+3+;+v v N.          ",
"          4+D D D 5+<+6+]+]+]+]+]+|+|+) a ]+]+]+]+[+[+a D ]+]+]+]+]+]+]+7+{+]+]+]+]+]+[+a a ]+]+]+]+]+|+8+2+9+'+2 ) >+          ",
"          0+b b b a+b+!.D , J J J D ) D , , J J J J D ) , J J J J J J D D D J J J J J D ) D , J J J J D G c+3+b b b 1.          ",
"          K.) ) ) d+e+f+, , , , , D D v v , , , , , , ) G , , , , , D a v , , , , , , D ) b v , , , , , b 2+g+) ) ) >+          ",
"          h+, , v {.<+f+a a a a ]+]+[+, ) ]+{+a {+]+]+|+v a a a a a ]+[+v a a a a a ]+]+a , ]+a a a a a , i+j+S , v _.          ",
"          K.) ) ) k+l+m+]+[+|+|+|+[+[+D a |+|+|+|+[+[+{+D ]+|+|+|+|+|+]+, ]+|+|+|+|+|+[+a ) [+|+|+|+|+]+k.^+9+n+) D )+          ",
"          X.! , v | <+G ) ) 7+7+7+) ) ) D 7+7+7+7+) a a D 7+7+7+7+7+7+) ) ) 7+7+7+7+7+) a ) ) 7+7+7+7+D =+o+p+k., v q+          ",
"          %+D D , k+<+c , , , , , D D , v , , , , , D a v , , , , , J a D , , , , , , D ) , , , , , , , s.o+/+(+D D )+          ",
"          %+'+D , &+<+h D ) ) ) ) ) a v , ) ) ) ) ) ) ]+b D ) ) ) ) ) [+, ) ) ) ) ) ) a a v ) ) ) ) ) ) ! 2+/+(+D , L.          ",
"          h+, , v | <+r+]+]+]+]+]+]+]+, ) ]+]+]+]+]+]+]+, a ]+]+]+]+]+[+, a ]+]+]+]+]+[+a D ]+]+]+]+]+]+! 2+p+k., v N.          ",
"          s+) ) D &+t+u.a u+u+) ) ) ) D ) u+u+) ) ) a a D ) ) ) ) ) a a D ) ) ) ) ) a a ) ) a a ) ) ) a s.i+5+n+) ) v+          ",
"          X., , k.| w+!.r., D D D D D ) D , D D D D D a , D D D D D D ) D D D D D D D D a D , D D D D D =+o+x+k., v q+          ",
"          y+a a u+W.~+h , D D D D D ) , , D D D D D ) a b D D D D D ) a , D D D D D D D ) b , D D D D D k.2+z+6.a ) A+          ",
"          0+b b b $+<+0 a ]+]+]+]+]+[+D ) a ]+]+]+]+]+]+v ]+]+]+]+]+]+1+, a ]+]+]+]+]+]+{+, a ]+]+]+]+]+D 2+j+;+b b 1.          ",
"          s+2 ) D d+B+@.]+[+[+[+[+[+[+D a [+[+[+[+[+[+]+D ]+[+[+[+[+[+]+D ]+[+[+[+[+[+[+a D ]+[+[+[+[+]+k.2+5+'+) ) v+          ",
"          C+v v b {.D+l.a ) ) ) ) ) ) ) D ) ) ) ) ) ) a D ) ) ) ) ) ) a ) ) ) ) ) ) ) ) ) D ) ) ) ) ) ) s.o+3 b v v _.          ",
"          O.D D D k+~+T D D D D D ) ) D , D D D D D ) a v D D D D D ) a D D D D D D D D ) 8+, D D D D D ;+2+E+'+D D W.          ",
"          F+D D (+&+G+H+) I+' ' a a ]+, J+) I+a a ) a ]+b I+a a a a a K+v ) a a a a ' I+I+w ) ) ' ' I+) (+^+/+(+J D W.          ",
"          W.).).J q+<+L+M+]+]+]+]+K+K+'+N+]+]+K+K+]+K+O+P+Q+R+]+]+K+S+T+(+U+K+K+K+K+K+S+Q+D S+]+]+]+]+|+J V+W+X+).J Y+          ",
"          Z+`+`+ @.@+@@@#@$@%@&@*@*@=@-@*@;@>@,@,@'@)@!@~@{@{@]@]@)@)@'@^@/@)@,@,@>@>@;@!@(@_@&@&@$@$@#@:@<@[@}@|@1@2@          ",
"                                                                                                                                ",
"                                                                                                                                ",
"                                                                                                                                ",
"                                                                                                                                ",
"                                                                                                                                ",
"                                                                                                                                ",
"                                                                                                                                ",
"                                                                                                                                ",
"                                                                                                                                ",
"                                                                                                                                ",
"                                                                                                                                "};
