/* XPM */
static char * 5_xpm[] = {
"11 17 52 1",
" 	c #FFFFFF",
".	c #C0C0C0",
"+	c #000000",
"@	c #5C5C5C",
"#	c #9F9F9F",
"$	c #717171",
"%	c #A2A2A2",
"&	c #FBFBFB",
"*	c #1C1C1C",
"=	c #B9B9B9",
"-	c #E7E7E7",
";	c #CDCDCD",
">	c #CECECE",
",	c #797979",
"'	c #4D4D4D",
")	c #353535",
"!	c #858585",
"~	c #DFDFDF",
"{	c #B0B0B0",
"]	c #161616",
"^	c #D4D4D4",
"/	c #B5B5B5",
"(	c #656565",
"_	c #636363",
":	c #DBDBDB",
"<	c #F9F9F9",
"[	c #404040",
"}	c #454545",
"|	c #F8F8F8",
"1	c #BEBEBE",
"2	c #D1D1D1",
"3	c #C2C2C2",
"4	c #FDFDFD",
"5	c #878787",
"6	c #5F5F5F",
"7	c #888888",
"8	c #AFAFAF",
"9	c #E0E0E0",
"0	c #949494",
"a	c #C4C4C4",
"b	c #DADADA",
"c	c #3B3B3B",
"d	c #767676",
"e	c #F1F1F1",
"f	c #555555",
"g	c #494949",
"h	c #EBEBEB",
"i	c #F4F4F4",
"j	c #AEAEAE",
"k	c #6C6C6C",
"l	c #323232",
"m	c #A4A4A4",
"           ",
"  .++++++@ ",
"  #++++++@ ",
"  $+%      ",
" &*+=      ",
" -++;      ",
" >++,')!~  ",
" {++++++]^ ",
" /(_:<:[+}|",
"       /++^",
"       ^++1",
"       2++3",
"4567   8++9",
" 0++a<bc+d ",
" ef+++++gh ",
"  ijklfme  ",
"           "};
