/* XPM */
static char * 9_xpm[] = {
"11 17 61 1",
" 	c #FFFFFF",
".	c #EFEFEF",
"+	c #9F9F9F",
"@	c #4D4D4D",
"#	c #323232",
"$	c #7A7A7A",
"%	c #D0D0D0",
"&	c #EBEBEB",
"*	c #494949",
"=	c #000000",
"-	c #B2B2B2",
";	c #7F7F7F",
">	c #535353",
",	c #E7E7E7",
"'	c #F1F1F1",
")	c #DFDFDF",
"!	c #EDEDED",
"~	c #B9B9B9",
"{	c #E9E9E9",
"]	c #9B9B9B",
"^	c #D7D7D7",
"/	c #3B3B3B",
"(	c #D6D6D6",
"_	c #CECECE",
":	c #515151",
"<	c #F5F5F5",
"[	c #E8E8E8",
"}	c #B1B1B1",
"|	c #0D0D0D",
"1	c #6C6C6C",
"2	c #424242",
"3	c #F6F6F6",
"4	c #9D9D9D",
"5	c #E1E1E1",
"6	c #2E2E2E",
"7	c #222222",
"8	c #EEEEEE",
"9	c #E4E4E4",
"0	c #878787",
"a	c #565656",
"b	c #BBBBBB",
"c	c #909090",
"d	c #F7F7F7",
"e	c #585858",
"f	c #FEFEFE",
"g	c #969696",
"h	c #A2A2A2",
"i	c #F2F2F2",
"j	c #A6A6A6",
"k	c #888888",
"l	c #383838",
"m	c #E6E6E6",
"n	c #F4F4F4",
"o	c #8F8F8F",
"p	c #161616",
"q	c #C2C2C2",
"r	c #E2E2E2",
"s	c #8A8A8A",
"t	c #404040",
"u	c #898989",
"v	c #DCDCDC",
"           ",
"  .+@#$%   ",
" &*=====-  ",
" ;=>,';==) ",
"!==~  {==] ",
"^==%   /=* ",
"(==_   :==<",
"[==}  <|==!",
" 1=2)34==={",
" 56====7==8",
"  90#abc==d",
"       1=e ",
"fg1h  i|=j ",
" k=lmno=p[ ",
" 97=====q  ",
"  rs*tuv   ",
"           "};
