/* XPM */
static char * garage ferme_xpm[] = {
"64 64 435 2",
"  	c #767676",
". 	c #797977",
"+ 	c #797875",
"@ 	c #777775",
"# 	c #A6A8A4",
"$ 	c #DDE2E5",
"% 	c #F7F8F8",
"& 	c #F1F3F4",
"* 	c #C5C6C7",
"= 	c #777676",
"- 	c #777776",
"; 	c #A9B1AC",
"> 	c #E5E9EA",
", 	c #F7F8F5",
"' 	c #F8F8F9",
") 	c #F9FBFA",
"! 	c #F7F8F7",
"~ 	c #F2F8F4",
"{ 	c #CCCBD0",
"] 	c #787776",
"^ 	c #B5B9B5",
"/ 	c #EBF1EE",
"( 	c #F9F8F8",
"_ 	c #F8FAF6",
": 	c #F9F9F8",
"< 	c #EEEFEE",
"[ 	c #DDE0DF",
"} 	c #E5E7E6",
"| 	c #F3F5F5",
"1 	c #F7F9F8",
"2 	c #F6FBF5",
"3 	c #F4F7F7",
"4 	c #D5D7D7",
"5 	c #787877",
"6 	c #B7C3BE",
"7 	c #EEEFF0",
"8 	c #F8FAF9",
"9 	c #EAECEB",
"0 	c #D6D8D7",
"a 	c #DDDEDD",
"b 	c #E8EAE9",
"c 	c #E2E4E3",
"d 	c #D4D6D5",
"e 	c #DDDFDE",
"f 	c #F2F4F3",
"g 	c #F6FAFA",
"h 	c #F5F9F9",
"i 	c #D8DDDE",
"j 	c #A1A59D",
"k 	c #C6CAC8",
"l 	c #F1F5F3",
"m 	c #FAFAF7",
"n 	c #F5FAF9",
"o 	c #F7F7F5",
"p 	c #DFE1E0",
"q 	c #F3F5F4",
"r 	c #F5F7F6",
"s 	c #ECEEED",
"t 	c #E0E2E1",
"u 	c #F0F2F2",
"v 	c #F8F9F6",
"w 	c #F9F8F7",
"x 	c #E1E6E4",
"y 	c #A7A7A5",
"z 	c #CBD0D0",
"A 	c #F2F6F4",
"B 	c #FAFAFA",
"C 	c #F4F6F5",
"D 	c #EBEDEC",
"E 	c #EFF1F0",
"F 	c #F0F2F1",
"G 	c #F1F3F2",
"H 	c #EEF0EF",
"I 	c #D7D9D8",
"J 	c #D8DAD9",
"K 	c #F7F9F7",
"L 	c #F8FAFA",
"M 	c #E7E9E9",
"N 	c #B2B6B7",
"O 	c #777777",
"P 	c #D3D8D6",
"Q 	c #F5F6F3",
"R 	c #F4F9F7",
"S 	c #F7FAFA",
"T 	c #E6E8E7",
"U 	c #E1E3E2",
"V 	c #F6F8F7",
"W 	c #EDEFF0",
"X 	c #F7F9F6",
"Y 	c #F5F7F4",
"Z 	c #EDF0EE",
"` 	c #B5BBBB",
" .	c #9EA59F",
"..	c #E0E0E2",
"+.	c #DADCDB",
"@.	c #E9EBEA",
"#.	c #F2F2EE",
"$.	c #C2C4CA",
"%.	c #A9AFAD",
"&.	c #E3E7E6",
"*.	c #F8FAF8",
"=.	c #F8FAF7",
"-.	c #E4E6E5",
";.	c #EDEFEE",
">.	c #DCDEDD",
",.	c #F1F6EE",
"'.	c #CACCCC",
").	c #AEB4B7",
"!.	c #E8ECEC",
"~.	c #E3E5E4",
"{.	c #DEE0DF",
"].	c #E6E8E8",
"^.	c #F7FAF9",
"/.	c #F7F7F6",
"(.	c #CFD4D8",
"_.	c #B8C0BD",
":.	c #ECF1EC",
"<.	c #F6F8F9",
"[.	c #F6FAF9",
"}.	c #F8F7F8",
"|.	c #F9F9F7",
"1.	c #D9DADD",
"2.	c #7B7B79",
"3.	c #C4C5C9",
"4.	c #F3F3F6",
"5.	c #F7FAF7",
"6.	c #E2E5E4",
"7.	c #F2F4F4",
"8.	c #F9F9F9",
"9.	c #F7F9F9",
"0.	c #E0E2E2",
"a.	c #A5A6A4",
"b.	c #C9D0D1",
"c.	c #F4F4F5",
"d.	c #F6F7F7",
"e.	c #E7E9E8",
"f.	c #D9DBDA",
"g.	c #F5F8F7",
"h.	c #E4E9E6",
"i.	c #ADAFAD",
"j.	c #7E7E7B",
"k.	c #CFD9D8",
"l.	c #F6F7F5",
"m.	c #F6FAF8",
"n.	c #F5F7F3",
"o.	c #F8F8F8",
"p.	c #F5F9F8",
"q.	c #EBEDED",
"r.	c #B5BAB8",
"s.	c #EFEFEF",
"t.	c #F7F9FA",
"u.	c #E9EEEB",
"v.	c #E0E3E1",
"w.	c #D9DADA",
"x.	c #E0E4E5",
"y.	c #F4F6F1",
"z.	c #F0F2EF",
"A.	c #F1F2F2",
"B.	c #BCC5C5",
"C.	c #F5F7F7",
"D.	c #CACFD2",
"E.	c #F1F4F3",
"F.	c #C4CACD",
"G.	c #F3F6F5",
"H.	c #D2D5D4",
"I.	c #D3D6D5",
"J.	c #D4D7D7",
"K.	c #D2D5D6",
"L.	c #D1D4D5",
"M.	c #D3D6D7",
"N.	c #D4D6D7",
"O.	c #D3D5D6",
"P.	c #D2D4D5",
"Q.	c #D1D4D6",
"R.	c #D4D7D8",
"S.	c #F6F9F8",
"T.	c #F9FAFA",
"U.	c #CBD1D3",
"V.	c #EDEFEF",
"W.	c #E3E6E7",
"X.	c #303A45",
"Y.	c #6B7179",
"Z.	c #A7AAB0",
"`.	c #A6A8AF",
" +	c #A6A9AF",
".+	c #A6A9B0",
"++	c #A5A8AF",
"@+	c #AAADB4",
"#+	c #A8ABB2",
"$+	c #AAACB3",
"%+	c #A4A6AD",
"&+	c #9FA1A7",
"*+	c #1F2835",
"=+	c #9DA6AB",
"-+	c #EDEFED",
";+	c #EFF1F1",
">+	c #C2C8CB",
",+	c #ECEFEF",
"'+	c #37424F",
")+	c #D5DAD9",
"!+	c #F4F5F5",
"~+	c #F6F8F8",
"{+	c #F5F6F6",
"]+	c #F0F1F1",
"^+	c #F5F9F7",
"/+	c #8B8F94",
"(+	c #A5AEB1",
"_+	c #F9F9FA",
":+	c #F9FBF9",
"<+	c #FAFBFB",
"[+	c #CAD1D3",
"}+	c #E4E7E7",
"|+	c #8E949B",
"1+	c #F2F4F1",
"2+	c #D7DCDF",
"3+	c #A0A9AC",
"4+	c #F0EFF2",
"5+	c #F0F2F0",
"6+	c #F1F1F2",
"7+	c #C3CACC",
"8+	c #EBEEEF",
"9+	c #B2B8BD",
"0+	c #EFF4F3",
"a+	c #A6AEB1",
"b+	c #FAF9FB",
"c+	c #F9FAFB",
"d+	c #C9D0D2",
"e+	c #EFF1EF",
"f+	c #E4E8E8",
"g+	c #B0B7BE",
"h+	c #F0F3F0",
"i+	c #F5F8F6",
"j+	c #F1F6F4",
"k+	c #A3ACAE",
"l+	c #F3F2F4",
"m+	c #F0F3F1",
"n+	c #F1F3F3",
"o+	c #C5CBCE",
"p+	c #EAEDED",
"q+	c #B0B7BC",
"r+	c #F2F5F2",
"s+	c #F8F9FA",
"t+	c #FBFCFD",
"u+	c #F2F4F5",
"v+	c #F8FAFB",
"w+	c #F9FBFC",
"x+	c #F5F6F7",
"y+	c #FAFBFC",
"z+	c #F0F2F3",
"A+	c #FAFCFC",
"B+	c #F3F5F6",
"C+	c #F2F7F5",
"D+	c #F8F7F9",
"E+	c #F8F9F9",
"F+	c #C8CFD1",
"G+	c #EAEEEE",
"H+	c #FAFCFA",
"I+	c #FCFDFC",
"J+	c #F6F8F6",
"K+	c #FAFBF9",
"L+	c #FBFCFB",
"M+	c #FBFCFA",
"N+	c #F8F9F7",
"O+	c #F5F7F5",
"P+	c #F0F4F4",
"Q+	c #F9F9FB",
"R+	c #E4E8E9",
"S+	c #80858E",
"T+	c #AEAFB2",
"U+	c #AEAEB2",
"V+	c #ADAEB2",
"W+	c #ADAEB1",
"X+	c #AFAFB3",
"Y+	c #AEAFB3",
"Z+	c #ADAFB1",
"`+	c #A6A9AD",
" @	c #A1AAAD",
".@	c #F1F0F3",
"+@	c #F1F3F1",
"@@	c #F2F2F3",
"#@	c #C2C9CC",
"$@	c #EBEFF0",
"%@	c #333B46",
"&@	c #0A0F1A",
"*@	c #09101A",
"=@	c #0A101B",
"-@	c #0B131F",
";@	c #A4ADAF",
">@	c #EEF0EE",
",@	c #323A46",
"'@	c #0B111B",
")@	c #0C121D",
"!@	c #0C1421",
"~@	c #F1F0F2",
"{@	c #F2F2F2",
"]@	c #EBEEF0",
"^@	c #313A47",
"/@	c #0D1420",
"(@	c #0E1421",
"_@	c #0F1420",
":@	c #111825",
"<@	c #CAD0D2",
"[@	c #EEF0F0",
"}@	c #E4E7E9",
"|@	c #303A48",
"1@	c #101723",
"2@	c #111725",
"3@	c #101622",
"4@	c #121A26",
"5@	c #C3C9CC",
"6@	c #EAEEF0",
"7@	c #313D49",
"8@	c #111A26",
"9@	c #101D29",
"0@	c #A4ADB0",
"a@	c #E7EBEC",
"b@	c #303D4A",
"c@	c #121C27",
"d@	c #121C28",
"e@	c #101F2B",
"f@	c #A2ABAD",
"g@	c #F5F4F6",
"h@	c #F4F6F4",
"i@	c #F4F6F6",
"j@	c #C6CCCF",
"k@	c #E8ECED",
"l@	c #313D4A",
"m@	c #121E2B",
"n@	c #121E2A",
"o@	c #131E2B",
"p@	c #12202F",
"q@	c #F6F5F7",
"r@	c #C8CED1",
"s@	c #323C4B",
"t@	c #142130",
"u@	c #13212E",
"v@	c #14222E",
"w@	c #162334",
"x@	c #F9F8FA",
"y@	c #E3E7E9",
"z@	c #323D4B",
"A@	c #172534",
"B@	c #162432",
"C@	c #162532",
"D@	c #182636",
"E@	c #A0A9AB",
"F@	c #F2F1F3",
"G@	c #F1F2F3",
"H@	c #C4CBCE",
"I@	c #E9EEEE",
"J@	c #32404D",
"K@	c #172735",
"L@	c #172435",
"M@	c #172636",
"N@	c #182737",
"O@	c #C9CFD2",
"P@	c #E2E6E7",
"Q@	c #323F4D",
"R@	c #192836",
"S@	c #1A2838",
"T@	c #192838",
"U@	c #192939",
"V@	c #A0A8AB",
"W@	c #EAEEEF",
"X@	c #33404F",
"Y@	c #1A293B",
"Z@	c #1B2B3B",
"`@	c #1B2A3C",
" #	c #1C2B3E",
".#	c #A5ADB0",
"+#	c #FAFAFB",
"@#	c #E3E7E7",
"##	c #324050",
"$#	c #1D2D3F",
"%#	c #1E2E3E",
"&#	c #1E2D3F",
"*#	c #1F2E41",
"=#	c #C3CACD",
"-#	c #F8F9F8",
";#	c #F8FBF9",
">#	c #344251",
",#	c #203045",
"'#	c #1D3043",
")#	c #1E3144",
"!#	c #1E3143",
"~#	c #1E3242",
"{#	c #1F3142",
"]#	c #212E43",
"^#	c #202F43",
"/#	c #1D3143",
"(#	c #1E3043",
"_#	c #1F3043",
":#	c #1D3042",
"<#	c #1E2F42",
"[#	c #1F3044",
"}#	c #1D3041",
"|#	c #1F2F43",
"1#	c #203044",
"2#	c #213044",
"3#	c #A5AAB3",
"4#	c #F7F8F9",
"5#	c #F6F3ED",
"6#	c #F7F6EC",
"7#	c #F7F5ED",
"8#	c #EBEAE4",
"9#	c #4D4B4E",
"0#	c #3F3C43",
"a#	c #3D3D44",
"b#	c #3D3D43",
"c#	c #3C3B42",
"d#	c #3B3B42",
"e#	c #3B3B43",
"f#	c #3C3A43",
"g#	c #3F3844",
"h#	c #3C3944",
"i#	c #393944",
"j#	c #393844",
"k#	c #3A3844",
"l#	c #393842",
"m#	c #38393F",
"n#	c #383940",
"o#	c #393940",
"p#	c #393840",
"q#	c #38383F",
"r#	c #37383F",
"s#	c #383841",
"t#	c #383842",
"u#	c #383843",
"v#	c #3D3A44",
"w#	c #3C3C42",
"x#	c #3F3C45",
"y#	c #413D46",
"z#	c #AAABA7",
"A#	c #F6F4EA",
"B#	c #CCCDCA",
"                                                                                                                                ",
"                                                                                                                                ",
"                                                                                                                                ",
"                                                                                                                                ",
"                                                                                                                                ",
"                                                                                                                                ",
"                                                                                                                                ",
"                                                                                                                                ",
"                                                                                                                                ",
"                                                                                                                                ",
"                                                              . +                                                               ",
"                                                        @ # $ % & * =                                                           ",
"                                                    - ; > , ' ) ) ! ~ { ]                                                       ",
"                                                - ^ / ( _ : < [ } | 1 2 3 4 5                                                   ",
"                                            - 6 7 8 8 8 9 0 a b c d e f ) g h i j                                               ",
"                                        ] k l m n o 9 p b q 1 1 1 r s e t u v 1 w x y                                           ",
"                                    . z A B 8 C c 0 p D E E F F F E G H } I J D 8 K L M N -                                     ",
"                                O P Q R S A T U D V 1 8 8 ) ) ) ) ) 8 8 8 1 F c p W K X Y Z `                                   ",
"                             ...1 ) ) G c t D q r r V V V V V V V V V V V r r r E c +.@.r 1 1 #.$.-                             ",
"                        %.&.*.=.) G -.p D G f f G f q q q q q q q q q q q f G f f G ;.c >.b V R K ,.'.                          ",
"                    ).!.8 8 8 E ~.} f 1 8 8 8 8 8 8 8 8 8 8 8 8 8 8 8 8 8 8 8 8 8 8 8 1 C b {.].V 8 ^./.(.-                     ",
"                _.:.<.[.1 H {.c D F F F G G G G G G G G G G G G G G G G G G G G G G G G E H D c J ~.C }.|.~ 1.2.                ",
"            3.4.( 5.! D ~.9 C 1 ) ) ) 8 8 8 8 8 8 8 8 8 8 8 8 8 8 8 8 8 8 8 8 8 8 8 8 8 8 8 ) 8 V H p 6.7.8.[.9.0.a.            ",
"        b.c.*.L d.T +.-.;.F E E E E E E E E E E E E E E E E E E E E E E E E E E E E E E E E E E H E ;.e.+.f.H 8 1 g.h.i.        ",
"  j.k.l.o m.n.@.~.H V 8 8 8 8 1 8 8 8 8 8 8 8 8 8 8 8 8 8 8 8 8 8 8 8 8 8 8 8 8 8 8 8 8 8 8 8 8 1 1 8 8 1 G ~.U H ' o.p.q.r.    ",
"  s.t.n u.v.t 9 G f f f f f f f f f f f f f f f f f f f f f f f f f f f f f f f f f f f f f f f f f f f f G f s {.w.x.y.g !     ",
"          z.V r r V V V V V V V V V V V V V V V V V V V V V V V V V V V V V V V V V V V V V V V V V V V V V V V r A.B.          ",
"          C.8 8 8 8 8 8 8 8 8 8 8 8 8 8 8 8 8 8 8 8 8 8 8 8 8 8 8 8 8 8 8 8 8 8 8 8 8 8 8 8 8 8 8 8 8 8 8 8 8 8 8 9.D.          ",
"          E.G G G G G G G G G G G G G G G G G G G G G G G G G G G G G G G G G G G G G G G G G G G G G G G G G G G 7.F.          ",
"          8 1 1 1 G.H.I.J.K.L.L.L.K.M.M.M.K.L.L.L.K.K.K.N.K.L.L.L.K.N.O.P.L.L.L.L.L.L.M.M.K.L.L.L.L.L.Q.R.U % S.1 T.U.          ",
"          V.E E E W.X.Y.Z.`. + + +.+++@+.+`. + + +++++#+`..+ + + +.+`.$+%+++ + + + + +#+++.+ + + + + +&+*+=+-+;+E ;+>+          ",
"          9.) ) ) ,+'+)+!+C r r r r ~+{+q r r r r {+V % f r r r r {+d.1 G r r r r r r 9.]+r r r r r r ^+/+(+_+:+) <+[+          ",
"          E F F F }+|+1+r V V V V V V q V V V V V V V C C V V V V V r V C V V V V V V V C V V V V V V r 2+3+4+5+F 6+7+          ",
"          1 8 8 8 8+9+Y r V V V V r V 1 r V V V V V C 1 V r V V V r C 8 V r V V V V V V 1 V V V V V V r 0+a+b+*.8 c+d+          ",
"          e+F F F f+g+h+r r r r r r ) q r V r r r r V 8 q r r r r r r ) E V r r r r r 8 q C r r r r r i+j+k+l+m+F n+o+          ",
"          r 1 ! ! p+q+r+L L L L L s+t+u+v+t.L L L s+w+v+x+s+L L L s+t.y+z+L L L L L L A+B+s+L L L L L ^.C+(+D+K V E+F+          ",
"          V 8 8 8 G+9+Y H+H+H+H+H+H+I+J+H+K+H+H+H+L+M+N+K H+H+H+H+H+H+H+O+M+H+H+H+H+H+M+J+H+H+H+H+H+H+8 P+a+Q+*.8 _+[+          ",
"          E F F F R+S+T+T+T+T+T+T+U+T+V+U+V+T+T+T+U+W+T+X+U+T+T+T+T+T+X+Y+Y+T+T+T+T+T+Y+Y+U+T+T+T+T+T+Z+`+ @.@+@F @@#@          ",
"          *.8 8 8 $@%@&@*@*@*@*@*@*@*@*@*@*@*@*@*@*@*@*@*@*@*@*@*@*@*@*@*@*@*@*@*@*@*@*@*@*@*@*@*@*@*@=@-@;@b+*.8 _+[+          ",
"          >@G G G R+,@'@'@'@'@'@'@'@'@'@'@'@'@'@'@'@'@'@'@'@'@'@'@'@'@'@'@'@'@'@'@'@'@'@'@'@'@'@'@'@'@)@!@3+~@+@G {@7+          ",
"          8 ) ) ) ]@^@/@(@(@(@(@(@(@(@(@(@(@(@(@(@(@(@(@(@(@(@(@(@(@(@(@(@(@(@(@(@(@(@(@(@(@(@(@(@(@(@_@:@;@b+*.) L <@          ",
"          [@F F F }@|@1@2@2@2@2@2@2@2@2@2@2@2@2@2@2@2@2@2@2@2@2@2@2@2@2@2@2@2@2@2@2@2@2@2@2@2@2@2@2@2@3@4@3+~@+@F u 5@          ",
"          9.8 8 8 6@7@8@8@8@8@8@8@8@8@8@8@8@8@8@8@8@8@8@8@8@8@8@8@8@8@8@8@8@8@8@8@8@8@8@8@8@8@8@8@8@8@8@9@0@b+*.8 L D.          ",
"          q C C C a@b@c@d@d@d@d@d@d@d@d@d@d@d@d@d@d@d@d@d@d@d@d@d@d@d@d@d@d@d@d@d@d@d@d@d@d@d@d@d@d@d@d@e@f@g@h@C i@j@          ",
"          i@r r r k@l@m@n@n@n@n@n@n@n@n@n@n@n@n@n@n@n@n@n@n@n@n@n@n@n@n@n@n@n@n@n@n@n@n@n@n@n@n@n@n@n@o@p@f@q@O+r ~+r@          ",
"          V 8 8 8 ]@s@t@u@u@u@u@u@u@u@u@u@u@u@u@u@u@u@u@u@u@u@u@u@u@u@u@u@u@u@u@u@u@u@u@u@u@u@u@u@u@u@v@w@0@x@*.8 8.F+          ",
"          F F F F y@z@A@B@B@B@B@B@B@B@B@B@B@B@B@B@B@B@B@B@B@B@B@B@B@B@B@B@B@B@B@B@B@B@B@B@B@B@B@B@B@B@C@D@E@F@m+F G@H@          ",
"          9.1 1 1 I@J@K@L@L@L@L@L@L@L@L@L@L@L@L@L@L@L@L@L@L@L@L@L@L@L@L@L@L@L@L@L@L@L@L@L@L@L@L@L@L@L@M@N@0@x@K 1 L O@          ",
"          [@E E E P@Q@R@S@S@S@S@S@S@S@S@S@S@S@S@S@S@S@S@S@S@S@S@S@S@S@S@S@S@S@S@S@S@S@S@S@S@S@S@S@S@S@T@U@V@~@e+E ;+F.          ",
"          9.8 8 8 W@X@Y@Z@Z@Z@Z@Z@Z@Z@Z@Z@Z@Z@Z@Z@Z@Z@Z@Z@Z@Z@Z@Z@Z@Z@Z@Z@Z@Z@Z@Z@Z@Z@Z@Z@Z@Z@Z@Z@Z@Z@`@ #.#b+*.8 +#d+          ",
"          [@F F F @###$#%#%#%#%#%#%#%#%#%#%#%#%#%#%#%#%#%#%#%#%#%#%#%#%#%#%#%#%#%#%#%#%#%#%#%#%#%#%#%#&#*#E@~@5+F 6+=#          ",
"          -#;#8 L 6@>#,#'#'#)#!#'#!#~#{#]#^#/#(#_#(#:#'#/#(#<#_#[#_#<#(#!#:#}#:#!#:#:#|#^#{#~#!#'#'#'#1#2#3#4#;#;#-#O@          ",
"          5#6#6#7#8#9#0#a#b#c#d#d#d#e#f#g#h#i#j#k#l#m#m#n#o#p#p#p#p#p#q#r#s#t#u#i#i#i#h#v#f#e#d#d#c#w#x#y#z#A#6#6#7#B#          ",
"                                                                                                                                ",
"                                                                                                                                ",
"                                                                                                                                ",
"                                                                                                                                ",
"                                                                                                                                ",
"                                                                                                                                ",
"                                                                                                                                ",
"                                                                                                                                ",
"                                                                                                                                ",
"                                                                                                                                ",
"                                                                                                                                "};
