/* XPM */
static char * Jerrican_xpm[] = {
"64 64 340 2",
"  	c #767676",
". 	c #7B7B7C",
"+ 	c #828486",
"@ 	c #6B767E",
"# 	c #737B82",
"$ 	c #7F8285",
"% 	c #71787E",
"& 	c #536370",
"* 	c #546470",
"= 	c #6A757F",
"- 	c #7C8185",
"; 	c #938A7F",
"> 	c #918E89",
", 	c #475561",
"' 	c #4D5D6A",
") 	c #546370",
"! 	c #586774",
"~ 	c #717B83",
"{ 	c #787777",
"] 	c #CCA876",
"^ 	c #C7A474",
"/ 	c #7F8082",
"( 	c #697177",
"_ 	c #455461",
": 	c #4E5D6B",
"< 	c #536471",
"[ 	c #5C6B77",
"} 	c #7E868D",
"| 	c #7D8185",
"1 	c #777777",
"2 	c #7C7B7A",
"3 	c #F5BF67",
"4 	c #F2BD68",
"5 	c #80817F",
"6 	c #7D8184",
"7 	c #6A7178",
"8 	c #455562",
"9 	c #536371",
"0 	c #65717B",
"a 	c #767B80",
"b 	c #797A7B",
"c 	c #AF9E84",
"d 	c #FCB839",
"e 	c #FDB93A",
"f 	c #AC9E86",
"g 	c #7B7E81",
"h 	c #626C74",
"i 	c #455462",
"j 	c #4E5D6A",
"k 	c #66717A",
"l 	c #838688",
"m 	c #D9B173",
"n 	c #FDBA40",
"o 	c #FCB838",
"p 	c #D6AC6D",
"q 	c #7B7C7C",
"r 	c #7B7D81",
"s 	c #5D6771",
"t 	c #465562",
"u 	c #4E5E6B",
"v 	c #69737C",
"w 	c #7F8080",
"x 	c #757576",
"y 	c #F9C56D",
"z 	c #FDBD49",
"A 	c #FDB837",
"B 	c #F7BA5E",
"C 	c #7F7F7E",
"D 	c #7A7A7A",
"E 	c #797E81",
"F 	c #5A646E",
"G 	c #465561",
"H 	c #505F6C",
"I 	c #787F85",
"J 	c #787878",
"K 	c #8D8584",
"L 	c #A08886",
"M 	c #A18483",
"N 	c #A28483",
"O 	c #A38483",
"P 	c #A78683",
"Q 	c #A88783",
"R 	c #A78685",
"S 	c #978685",
"T 	c #777676",
"U 	c #767777",
"V 	c #ECB666",
"W 	c #FDB432",
"X 	c #FDB22D",
"Y 	c #ECB76C",
"Z 	c #7B7C7D",
"` 	c #777D81",
" .	c #42515E",
"..	c #51616E",
"+.	c #556571",
"@.	c #7E8286",
"#.	c #AB8583",
"$.	c #C74141",
"%.	c #C82320",
"&.	c #C72420",
"*.	c #C72320",
"=.	c #D72722",
"-.	c #E42827",
";.	c #E72928",
">.	c #E02B2B",
",.	c #C46665",
"'.	c #8A8281",
").	c #968B7E",
"!.	c #D6A567",
"~.	c #D6A669",
"{.	c #968C7F",
"].	c #797A7A",
"^.	c #606973",
"/.	c #495764",
"(.	c #68727C",
"_.	c #7A7B7C",
":.	c #7C7E80",
"<.	c #7D7E80",
"[.	c #908282",
"}.	c #C53535",
"|.	c #C82322",
"1.	c #C72321",
"2.	c #C92321",
"3.	c #DE2827",
"4.	c #E72929",
"5.	c #DE2826",
"6.	c #BE6E6B",
"7.	c #777878",
"8.	c #76797D",
"9.	c #41505E",
"0.	c #4F5F6C",
"a.	c #526170",
"b.	c #606A73",
"c.	c #3A4A59",
"d.	c #616A73",
"e.	c #7B7B7B",
"f.	c #C37471",
"g.	c #C82321",
"h.	c #C15F5C",
"i.	c #B56A68",
"j.	c #C4716F",
"k.	c #E22B2D",
"l.	c #E62929",
"m.	c #D04949",
"n.	c #7D7D7D",
"o.	c #636D76",
"p.	c #53636F",
"q.	c #475867",
"r.	c #304354",
"s.	c #2B3F50",
"t.	c #2A3F50",
"u.	c #2C4153",
"v.	c #7A7D80",
"w.	c #777776",
"x.	c #A78A89",
"y.	c #C92B28",
"z.	c #CA4F4B",
"A.	c #8A807F",
"B.	c #937E7D",
"C.	c #E15E5C",
"D.	c #E62A29",
"E.	c #CE3031",
"F.	c #7A7B7B",
"G.	c #797979",
"H.	c #7D8084",
"I.	c #3C4B59",
"J.	c #324554",
"K.	c #2B3E50",
"L.	c #4B4E5C",
"M.	c #73767A",
"N.	c #898786",
"O.	c #C45755",
"P.	c #AE7C7B",
"Q.	c #878081",
"R.	c #B97B7B",
"S.	c #E34C4A",
"T.	c #CD2F30",
"U.	c #7D7E7E",
"V.	c #7A7A7B",
"W.	c #78797B",
"X.	c #676D73",
"Y.	c #233443",
"Z.	c #223545",
"`.	c #313E51",
" +	c #803541",
".+	c #B82A2A",
"++	c #B3918C",
"@+	c #C48076",
"#+	c #D97676",
"$+	c #DA2726",
"%+	c #DC2624",
"&+	c #DD3637",
"*+	c #CB6364",
"=+	c #C55859",
"-+	c #C65859",
";+	c #C85E5D",
">+	c #DA6C69",
",+	c #E54A49",
"'+	c #666D73",
")+	c #223344",
"!+	c #223343",
"~+	c #273A4B",
"{+	c #6A3847",
"]+	c #AD292C",
"^+	c #BE2521",
"/+	c #D24233",
"(+	c #E84739",
"_+	c #E72E29",
":+	c #E62828",
"<+	c #7F8183",
"[+	c #384350",
"}+	c #3F3040",
"|+	c #81252D",
"1+	c #BA2222",
"2+	c #CC392E",
"3+	c #E44836",
"4+	c #E9342C",
"5+	c #E72A27",
"6+	c #757A7F",
"7+	c #7B7A7D",
"8+	c #953232",
"9+	c #A62B24",
"0+	c #D84836",
"a+	c #E83D31",
"b+	c #E72A28",
"c+	c #918985",
"d+	c #D3756B",
"e+	c #E84335",
"f+	c #E72A29",
"g+	c #8F8380",
"h+	c #E87464",
"i+	c #E9342B",
"j+	c #C9877D",
"k+	c #E94836",
"l+	c #D17F72",
"m+	c #EA4234",
"n+	c #D17E71",
"o+	c #DD2827",
"p+	c #E82929",
"q+	c #E32929",
"r+	c #D92726",
"s+	c #E42A29",
"t+	c #E02827",
"u+	c #C62320",
"v+	c #C72322",
"w+	c #D82726",
"x+	c #E32828",
"y+	c #C92522",
"z+	c #D12725",
"A+	c #E22828",
"B+	c #D72827",
"C+	c #E32928",
"D+	c #D82725",
"E+	c #D82827",
"F+	c #D52623",
"G+	c #C92422",
"H+	c #D72726",
"I+	c #D52726",
"J+	c #CB2523",
"K+	c #C72422",
"L+	c #C72522",
"M+	c #CA2523",
"N+	c #CF2525",
"O+	c #DC2829",
"P+	c #CA2422",
"Q+	c #DD2826",
"R+	c #C62322",
"S+	c #D42622",
"T+	c #C82420",
"U+	c #C82221",
"V+	c #CB2421",
"W+	c #D32524",
"X+	c #D32624",
"Y+	c #D02523",
"Z+	c #D32523",
"`+	c #E52829",
" @	c #CB2221",
".@	c #D02422",
"+@	c #DC2726",
"@@	c #E22827",
"#@	c #DC2625",
"$@	c #D52624",
"%@	c #E12827",
"&@	c #DD2624",
"*@	c #E62A28",
"=@	c #D52625",
"-@	c #E82928",
";@	c #DB2726",
">@	c #C92421",
",@	c #D62624",
"'@	c #E42928",
")@	c #D22624",
"!@	c #E72A2A",
"~@	c #DF2926",
"{@	c #D92625",
"]@	c #E22928",
"^@	c #CE2724",
"/@	c #D72826",
"(@	c #C82422",
"_@	c #D72626",
":@	c #D22523",
"<@	c #D22423",
"[@	c #D62625",
"}@	c #C62321",
"|@	c #E9292A",
"1@	c #E52928",
"2@	c #DF2826",
"3@	c #D92725",
"4@	c #DF2827",
"5@	c #D92624",
"6@	c #D82624",
"7@	c #E72829",
"8@	c #DE2926",
"9@	c #D62523",
"0@	c #E42828",
"a@	c #7F7F7D",
"b@	c #D18072",
"c@	c #CC3332",
"d@	c #C5877F",
"e@	c #E94A39",
"f@	c #CA5956",
"g@	c #968884",
"h@	c #EB6E5A",
"i@	c #E92D2C",
"j@	c #D82625",
"k@	c #B27C7B",
"l@	c #858484",
"m@	c #B38C88",
"n@	c #E96250",
"o@	c #C47A79",
"p@	c #807D7D",
"q@	c #8E807E",
"r@	c #BF8079",
"s@	c #CA706F",
"t@	c #C66462",
"u@	c #C46060",
"v@	c #C76A67",
"w@	c #B76866",
"x@	c #A38382",
"y@	c #7C7B7C",
"                                                                                                                                ",
"                                                                                                                                ",
"          .                                                                                                                     ",
"        + @ # $ .                                                                                                               ",
"        % & & * = - +                                                                                                           ",
"      ; > , ' & & ) ! ~ - .                                                                                                     ",
"    { ] ^ / ( _ : & & & < [ } | 1                                                                                               ",
"    2 3 4 5 1 6 7 8 : & & & & 9 0 a b                                                                                           ",
"    c d e f     1 g h i j & & & & & k l                                                                                         ",
"    m n o p         q r s t u & & & & v w                                                                                       ",
"  x y z A B C           D E F G H & & & I J                   K L M M M M M M M M M M M M N O P Q Q R S T                       ",
"  U V W X Y                 Z `  ...& & +.@.                #.$.%.&.&.&.&.&.&.&.&.&.&.&.*.=.-.;.;.;.;.>.,.'.                    ",
"  1 ).!.~.{.J                 ].^./.& & & (._.:.<.        [.}.|.1.1.1.1.1.1.1.1.1.1.1.2.3.4.4.4.4.4.4.4.5.6.1                   ",
"        7.                      8.9.0.& & a.b.c.d.e.      f.1.g.h.i.i.i.i.i.i.i.i.i.j.k.;.4.4.4.4.4.4.4.l.m.n.                  ",
"                                n.o.t p.q.r.s.t.u.v.  w.x.y.1.z.A.                B.C.D.4.4.4.4.4.4.4.4.l.E.F.                  ",
"                                G.H.I.J.K.t.s.s.L.M.q N.O.1.1.P.            1 Q.R.S.;.4.4.4.4.4.4.4.4.4.l.T.U.                  ",
"                              V.W.X.Y.Z.t.t.`. +.+++@+#+$+%+&+*+=+-+-+-+-+;+>+,+;.4.4.4.4.4.4.4.4.4.4.4.l.T.U.                  ",
"                                '+)+!+!+~+{+]+^+/+(+_+:+4.4.4.4.4.4.4.4.4.4.4.4.4.4.4.4.4.4.4.4.4.4.4.4.l.T.U.                  ",
"                                <+[+!+}+|+1+2+3+4+5+4.4.4.4.4.4.4.4.4.4.4.4.4.4.4.4.4.4.4.4.4.4.4.4.4.4.l.T.U.                  ",
"                                  6+7+8+9+0+a+b+4.4.4.4.4.4.4.4.4.4.4.4.4.4.4.4.4.4.4.4.4.4.4.4.4.4.4.4.l.T.U.                  ",
"                                    c+d+e+f+4.4.4.4.4.4.4.4.4.4.4.4.4.4.4.4.4.4.4.4.4.4.4.4.4.4.4.4.4.4.l.T.U.                  ",
"                                  g+h+i+4.4.4.4.4.4.4.4.4.4.4.4.4.4.4.4.4.4.4.4.4.4.4.4.4.4.4.4.4.4.4.4.l.T.U.                  ",
"                                1 j+k+b+4.4.4.4.4.4.4.4.4.4.4.4.4.4.4.4.4.4.4.4.4.4.4.4.4.4.4.4.4.4.4.4.l.T.U.                  ",
"                                  l+m+4.4.4.4.4.4.4.4.4.4.4.4.4.4.4.4.4.4.4.4.4.4.4.4.4.4.4.4.4.4.4.4.4.l.T.U.                  ",
"                                  n+m+4.4.4.4.4.4.4.4.4.4.4.4.4.4.4.4.4.4.4.4.4.4.4.4.4.4.4.4.4.4.4.4.4.l.T.U.                  ",
"                                  n+m+4.4.4.;.o+o+p+4.4.4.4.4.4.4.4.4.4.4.4.4.4.4.4.4.4.4.4.q+r+s+4.4.4.l.T.U.                  ",
"                                  n+m+4.4.4.t+u+v+w+4.4.4.4.4.4.4.4.4.4.4.4.4.4.4.4.4.4.4.x+y+g.z+4.4.4.l.T.U.                  ",
"                                  n+m+4.4.4.A+2.|.v+B+4.4.4.4.4.4.4.4.4.4.4.4.4.4.4.4.4.C+y+1.g.D+4.4.4.l.T.U.                  ",
"                                  n+m+4.4.4.4.5.2.g.1.E+4.4.4.4.4.4.4.4.4.4.4.4.4.4.4.C+y+1.g.F+l.4.4.4.l.T.U.                  ",
"                                  n+m+4.4.4.4.4.5.2.g.1.E+4.4.4.4.4.4.4.4.4.4.4.4.4.C+G+1.g.F+l.4.4.4.4.l.T.U.                  ",
"                                  n+m+4.4.4.4.4.4.5.2.1.1.H+I+J+K+L+L+L+L+L+L+M+N+O+P+1.g.F+4.4.4.4.4.4.l.T.U.                  ",
"                                  n+m+4.4.4.4.4.4.4.Q+2.1.1.1.1.1.1.1.1.1.1.1.1.1.R+1.|.S+4.4.4.4.4.4.4.l.T.U.                  ",
"                                  n+m+4.4.4.4.4.4.4.4.Q+T+1.U+V+W+X+X+X+X+X+X+Y+2.1.1.Z+f+4.4.4.4.4.4.4.l.T.U.                  ",
"                                  n+m+4.4.4.4.4.4.4.4.`+ @1..@l.4.p+p+p+p+p+p+p++@1.1.$+4.4.4.4.4.4.4.4.l.T.U.                  ",
"                                  n+m+4.4.4.4.4.4.4.4.@@g.1.#@l.4.4.4.4.4.4.4.4.l.g.1.$@p+4.4.4.4.4.4.4.l.T.U.                  ",
"                                  n+m+4.4.4.4.4.4.4.l.%@1.1.&@4.4.4.4.4.4.4.4.4.*@2.1.$@p+4.4.4.4.4.4.4.l.T.U.                  ",
"                                  n+m+4.4.4.4.4.4.4.l.%@1.1.&@4.4.4.4.4.4.4.4.4.*@2.1.=@-@4.4.4.4.4.4.4.l.T.U.                  ",
"                                  n+m+4.4.4.4.4.4.4.l.%@1.1.&@4.4.4.4.4.4.4.4.4.*@2.1.=@-@4.4.4.4.4.4.4.l.T.U.                  ",
"                                  n+m+4.4.4.4.4.4.4.l.%@1.1.&@4.4.4.4.4.4.4.4.4.*@2.1.=@-@4.4.4.4.4.4.4.l.T.U.                  ",
"                                  n+m+4.4.4.4.4.4.4.l.%@1.1.&@4.4.4.4.4.4.4.4.4.*@2.1.=@-@4.4.4.4.4.4.4.l.T.U.                  ",
"                                  n+m+4.4.4.4.4.4.4.l.%@1.1.&@4.4.4.4.4.4.4.4.4.*@2.1.=@-@4.4.4.4.4.4.4.l.T.U.                  ",
"                                  n+m+4.4.4.4.4.4.4.l.%@1.1.&@4.4.4.4.4.4.4.4.4.*@2.1.=@-@4.4.4.4.4.4.4.l.T.U.                  ",
"                                  n+m+4.4.4.4.4.4.4.p+A+1.1.;@4.4.4.4.4.4.4.4.4.b+>@1.,@p+4.4.4.4.4.4.4.l.T.U.                  ",
"                                  n+m+4.4.4.4.4.4.4.4.'@T+1.)@p+4.4.4.4.4.4.4.!@~@1.U+{@4.4.4.4.4.4.4.4.l.T.U.                  ",
"                                  n+m+4.4.4.4.4.4.4.4.]@2.1.1.^@B+/@/@/@/@/@/@I+(@1.1._@f+4.4.4.4.4.4.4.l.T.U.                  ",
"                                  n+m+4.4.4.4.4.4.4.C+y+1.%.g.%.g.g.g.g.g.g.g.*.1.*.1.R+B+4.4.4.4.4.4.4.l.T.U.                  ",
"                                  n+m+4.4.4.4.4.4.C+y+1.g.:@<@%.*.*.*.*.*.*.*.1.V+[@%.|.}@B+4.4.4.4.4.4.l.T.U.                  ",
"                                  n+m+4.4.4.4.4.C+y+1.g.F+4.|@D.-.-.-.-.-.-.-.1@;.;.2@2.|.R+B+4.4.4.4.4.l.T.U.                  ",
"                                  n+m+4.4.4.4.C+y+1.g.F+l.4.4.4.4.4.4.4.4.4.4.4.4.4.4.5.2.g.1.E+4.4.4.4.l.T.U.                  ",
"                                  n+m+4.4.4.'@P+1.g.F+l.4.4.4.4.4.4.4.4.4.4.4.4.4.4.4.4.5.2.g.g.3@4.4.4.l.T.U.                  ",
"                                  n+m+4.4.4.4@|.g.F+4.4.4.4.4.4.4.4.4.4.4.4.4.4.4.4.4.4.4.5.2.1.:@4.4.4.l.T.U.                  ",
"                                  n+m+4.4.4.4.5@6@l.4.4.4.4.4.4.4.4.4.4.4.4.4.4.4.4.4.4.4.7@8@9@0@4.4.4.l.T.U.                  ",
"                                  n+m+4.4.4.4.4.4.4.4.4.4.4.4.4.4.4.4.4.4.4.4.4.4.4.4.4.4.4.4.4.4.4.4.4.l.T.U.                  ",
"                                  n+m+4.4.4.4.4.4.4.4.4.4.4.4.4.4.4.4.4.4.4.4.4.4.4.4.4.4.4.4.4.4.4.4.4.l.T.U.                  ",
"                                  n+m+4.4.4.4.4.4.4.4.4.4.4.4.4.4.4.4.4.4.4.4.4.4.4.4.4.4.4.4.4.4.4.4.4.l.T.U.                  ",
"                                  n+m+4.4.4.4.4.4.4.4.4.4.4.4.4.4.4.4.4.4.4.4.4.4.4.4.4.4.4.4.4.4.4.4.4.l.T.U.                  ",
"                                a@b@m+4.4.4.4.4.4.4.4.4.4.4.4.4.4.4.4.4.4.4.4.4.4.4.4.4.4.4.4.4.4.4.4.4.l.c@F.                  ",
"                                  d@e@4.4.4.4.4.4.4.4.4.4.4.4.4.4.4.4.4.4.4.4.4.4.4.4.4.4.4.4.4.4.4.4.4.1@f@                    ",
"                                  g@h@i@4.4.4.4.4.4.4.4.4.4.4.4.4.4.4.4.4.4.4.4.4.4.4.4.4.4.4.4.4.4.4.4.j@k@                    ",
"                                  l@m@n@_+p+4.4.4.4.4.4.4.4.4.4.4.4.4.4.4.4.4.4.4.4.4.4.4.4.4.4.4.4.4.5.o@p@                    ",
"                      1               q@r@s@t@u@u@u@u@u@u@u@u@u@u@u@u@u@u@u@u@u@u@u@u@u@u@u@u@u@u@v@w@x@y@                      ",
"                                      1                                                                                         ",
"                                                                                                                                ",
"                                                                                                                                "};
